M48
;DRILL file {KiCad 4.0.6} date 03/11/18 17:34:16
;FORMAT={-:-/ absolute / inch / decimal}
FMAT,2
INCH,TZ
T1C0.016
T2C0.020
T3C0.022
%
G90
G05
M72
T1
X4.793Y-3.858
X5.126Y-3.982
X5.3715Y-3.8265
X5.53Y-3.725
X6.0035Y-4.1735
X6.025Y-3.725
X6.2945Y-4.07
X6.323Y-3.894
X6.325Y-3.9885
X6.381Y-4.127
X6.7085Y-4.105
X6.714Y-4.249
T2
X6.255Y-4.175
X6.2944Y-4.175
X6.8825Y-3.7786
X6.8825Y-3.818
T2
X4.5141Y-3.8122G85X4.5396Y-3.8122
G05
X4.5141Y-4.0878G85X4.5396Y-4.0878
G05
T3
X4.6331Y-3.8457G85X4.6331Y-3.8575
G05
X4.6331Y-4.0425G85X4.6331Y-4.0543
G05
T0
M30
