G04 #@! TF.FileFunction,Legend,Top*
%FSLAX46Y46*%
G04 Gerber Fmt 4.6, Leading zero omitted, Abs format (unit mm)*
G04 Created by KiCad (PCBNEW 4.0.6) date 03/11/18 17:34:21*
%MOMM*%
%LPD*%
G01*
G04 APERTURE LIST*
%ADD10C,0.100000*%
%ADD11C,0.150000*%
%ADD12C,0.127000*%
%ADD13C,0.120000*%
%ADD14C,0.050000*%
G04 APERTURE END LIST*
D10*
D11*
X167597000Y-103470000D02*
X167597000Y-103520000D01*
X171747000Y-103470000D02*
X171747000Y-103615000D01*
X171747000Y-108620000D02*
X171747000Y-108475000D01*
X167597000Y-108620000D02*
X167597000Y-108475000D01*
X167597000Y-103470000D02*
X171747000Y-103470000D01*
X167597000Y-108620000D02*
X171747000Y-108620000D01*
X167597000Y-103520000D02*
X166197000Y-103520000D01*
D12*
X121232000Y-101330000D02*
G75*
G03X121232000Y-101330000I-50000J0D01*
G01*
D13*
X156647000Y-101475000D02*
X155717000Y-101475000D01*
X153487000Y-101475000D02*
X154417000Y-101475000D01*
X153487000Y-101475000D02*
X153487000Y-103635000D01*
X156647000Y-101475000D02*
X156647000Y-102935000D01*
X156647000Y-109095000D02*
X155717000Y-109095000D01*
X153487000Y-109095000D02*
X154417000Y-109095000D01*
X153487000Y-109095000D02*
X153487000Y-111255000D01*
X156647000Y-109095000D02*
X156647000Y-110555000D01*
X164267000Y-101475000D02*
X163337000Y-101475000D01*
X161107000Y-101475000D02*
X162037000Y-101475000D01*
X161107000Y-101475000D02*
X161107000Y-103635000D01*
X164267000Y-101475000D02*
X164267000Y-102935000D01*
X164267000Y-109095000D02*
X163337000Y-109095000D01*
X161107000Y-109095000D02*
X162037000Y-109095000D01*
X161107000Y-109095000D02*
X161107000Y-111255000D01*
X164267000Y-109095000D02*
X164267000Y-110555000D01*
X142259800Y-109337400D02*
X141559800Y-109337400D01*
X141559800Y-108137400D02*
X142259800Y-108137400D01*
X136771900Y-108099300D02*
X137471900Y-108099300D01*
X137471900Y-109299300D02*
X136771900Y-109299300D01*
X131984000Y-108632700D02*
X132684000Y-108632700D01*
X132684000Y-109832700D02*
X131984000Y-109832700D01*
X127206300Y-100856300D02*
X127206300Y-101556300D01*
X126006300Y-101556300D02*
X126006300Y-100856300D01*
X125507000Y-96555000D02*
X126207000Y-96555000D01*
X126207000Y-97755000D02*
X125507000Y-97755000D01*
X132671300Y-108562700D02*
X131971300Y-108562700D01*
X131971300Y-107362700D02*
X132671300Y-107362700D01*
X141106600Y-104693200D02*
X141106600Y-103993200D01*
X142306600Y-103993200D02*
X142306600Y-104693200D01*
X137572000Y-92110000D02*
X138272000Y-92110000D01*
X138272000Y-93310000D02*
X137572000Y-93310000D01*
X130652000Y-93310000D02*
X129952000Y-93310000D01*
X129952000Y-92110000D02*
X130652000Y-92110000D01*
X163197000Y-97915000D02*
X165377000Y-97915000D01*
X169797000Y-97915000D02*
X167617000Y-97915000D01*
X163957000Y-91315000D02*
X165377000Y-91315000D01*
X169037000Y-91315000D02*
X167617000Y-91315000D01*
X163197000Y-97915000D02*
X163197000Y-92075000D01*
X163197000Y-92075000D02*
X163957000Y-91315000D01*
X169037000Y-91315000D02*
X169797000Y-92075000D01*
X169797000Y-92075000D02*
X169797000Y-97915000D01*
X158207000Y-96805000D02*
X158207000Y-97505000D01*
X157007000Y-97505000D02*
X157007000Y-96805000D01*
X155352000Y-95920000D02*
X156052000Y-95920000D01*
X156052000Y-97120000D02*
X155352000Y-97120000D01*
X155352000Y-97190000D02*
X156052000Y-97190000D01*
X156052000Y-98390000D02*
X155352000Y-98390000D01*
X160117000Y-92845000D02*
X160117000Y-93845000D01*
X160117000Y-93845000D02*
X162217000Y-93845000D01*
X160117000Y-92845000D02*
X162217000Y-92845000D01*
X143772000Y-107980000D02*
X144772000Y-107980000D01*
X144772000Y-107980000D02*
X144772000Y-105880000D01*
X143772000Y-107980000D02*
X143772000Y-105880000D01*
X145677000Y-107980000D02*
X146677000Y-107980000D01*
X146677000Y-107980000D02*
X146677000Y-105880000D01*
X145677000Y-107980000D02*
X145677000Y-105880000D01*
X160117000Y-94700000D02*
X160117000Y-95800000D01*
X160117000Y-95800000D02*
X162217000Y-95800000D01*
X160117000Y-94700000D02*
X162217000Y-94700000D01*
X112302000Y-95980000D02*
X112302000Y-104680000D01*
X118712000Y-95980000D02*
X118712000Y-104680000D01*
X118712000Y-104680000D02*
X112302000Y-104680000D01*
X113532000Y-104680000D02*
X113532000Y-95980000D01*
X112302000Y-95980000D02*
X118712000Y-95980000D01*
X175510500Y-95417200D02*
X175209993Y-95417200D01*
X174421007Y-95417200D02*
X174120500Y-95417200D01*
X175510500Y-96292200D02*
X175510500Y-95417200D01*
X174120500Y-96292200D02*
X174120500Y-95417200D01*
X175510500Y-96292200D02*
X175423776Y-96292200D01*
X174207224Y-96292200D02*
X174120500Y-96292200D01*
X175510500Y-96977200D02*
X175510500Y-97662200D01*
X175510500Y-97662200D02*
X174815500Y-97662200D01*
X160437000Y-106740000D02*
X160437000Y-106439493D01*
X160437000Y-105650507D02*
X160437000Y-105350000D01*
X159562000Y-106740000D02*
X160437000Y-106740000D01*
X159562000Y-105350000D02*
X160437000Y-105350000D01*
X159562000Y-106740000D02*
X159562000Y-106653276D01*
X159562000Y-105436724D02*
X159562000Y-105350000D01*
X158877000Y-106740000D02*
X158192000Y-106740000D01*
X158192000Y-106740000D02*
X158192000Y-106045000D01*
X129291800Y-109097700D02*
X129291800Y-108097700D01*
X130651800Y-108097700D02*
X130651800Y-109097700D01*
X149487000Y-104095000D02*
X150487000Y-104095000D01*
X150487000Y-105455000D02*
X149487000Y-105455000D01*
X149487000Y-105365000D02*
X150487000Y-105365000D01*
X150487000Y-106725000D02*
X149487000Y-106725000D01*
X149487000Y-109175000D02*
X150487000Y-109175000D01*
X150487000Y-110535000D02*
X149487000Y-110535000D01*
X149487000Y-110445000D02*
X150487000Y-110445000D01*
X150487000Y-111805000D02*
X149487000Y-111805000D01*
X144952000Y-103005000D02*
X144952000Y-104005000D01*
X143592000Y-104005000D02*
X143592000Y-103005000D01*
X146857000Y-103005000D02*
X146857000Y-104005000D01*
X145497000Y-104005000D02*
X145497000Y-103005000D01*
X160917000Y-91395000D02*
X161917000Y-91395000D01*
X161917000Y-92755000D02*
X160917000Y-92755000D01*
X162187000Y-105365000D02*
X163187000Y-105365000D01*
X163187000Y-106725000D02*
X162187000Y-106725000D01*
D11*
X128937000Y-95155000D02*
X128937000Y-95730000D01*
X139287000Y-95155000D02*
X139287000Y-95830000D01*
X139287000Y-105505000D02*
X139287000Y-104830000D01*
X128937000Y-105505000D02*
X128937000Y-104830000D01*
X128937000Y-95155000D02*
X129612000Y-95155000D01*
X128937000Y-105505000D02*
X129612000Y-105505000D01*
X139287000Y-105505000D02*
X138612000Y-105505000D01*
X139287000Y-95155000D02*
X138612000Y-95155000D01*
X128937000Y-95730000D02*
X127662000Y-95730000D01*
D13*
X157537000Y-91565000D02*
X158737000Y-91565000D01*
X158737000Y-91565000D02*
X158737000Y-94265000D01*
X153937000Y-95565000D02*
X153937000Y-91565000D01*
X153937000Y-91565000D02*
X155137000Y-91565000D01*
X134739800Y-114564000D02*
X147339800Y-114564000D01*
X147339800Y-114564000D02*
X147339800Y-109464000D01*
X147339800Y-109464000D02*
X134739800Y-109464000D01*
D11*
X168910095Y-101997381D02*
X168910095Y-102806905D01*
X168957714Y-102902143D01*
X169005333Y-102949762D01*
X169100571Y-102997381D01*
X169291048Y-102997381D01*
X169386286Y-102949762D01*
X169433905Y-102902143D01*
X169481524Y-102806905D01*
X169481524Y-101997381D01*
X169862476Y-101997381D02*
X170481524Y-101997381D01*
X170148190Y-102378333D01*
X170291048Y-102378333D01*
X170386286Y-102425952D01*
X170433905Y-102473571D01*
X170481524Y-102568810D01*
X170481524Y-102806905D01*
X170433905Y-102902143D01*
X170386286Y-102949762D01*
X170291048Y-102997381D01*
X170005333Y-102997381D01*
X169910095Y-102949762D01*
X169862476Y-102902143D01*
D14*
X126680347Y-100183288D02*
X126680347Y-99379906D01*
X126871629Y-99379906D01*
X126986398Y-99418162D01*
X127062910Y-99494675D01*
X127101167Y-99571187D01*
X127139423Y-99724212D01*
X127139423Y-99838981D01*
X127101167Y-99992006D01*
X127062910Y-100068519D01*
X126986398Y-100145031D01*
X126871629Y-100183288D01*
X126680347Y-100183288D01*
X127904549Y-100183288D02*
X127445473Y-100183288D01*
X127675011Y-100183288D02*
X127675011Y-99379906D01*
X127598498Y-99494675D01*
X127521986Y-99571187D01*
X127445473Y-99609443D01*
X122829065Y-101457068D02*
X122829065Y-100654812D01*
X123134687Y-100654812D01*
X123211092Y-100693015D01*
X123249295Y-100731218D01*
X123287497Y-100807623D01*
X123287497Y-100922231D01*
X123249295Y-100998636D01*
X123211092Y-101036839D01*
X123134687Y-101075042D01*
X122829065Y-101075042D01*
X124089753Y-101457068D02*
X123822335Y-101075042D01*
X123631321Y-101457068D02*
X123631321Y-100654812D01*
X123936943Y-100654812D01*
X124013348Y-100693015D01*
X124051551Y-100731218D01*
X124089753Y-100807623D01*
X124089753Y-100922231D01*
X124051551Y-100998636D01*
X124013348Y-101036839D01*
X123936943Y-101075042D01*
X123631321Y-101075042D01*
X124318969Y-100654812D02*
X124777401Y-100654812D01*
X124548185Y-101457068D02*
X124548185Y-100654812D01*
X125503252Y-101457068D02*
X125235834Y-101075042D01*
X125044820Y-101457068D02*
X125044820Y-100654812D01*
X125350442Y-100654812D01*
X125426847Y-100693015D01*
X125465050Y-100731218D01*
X125503252Y-100807623D01*
X125503252Y-100922231D01*
X125465050Y-100998636D01*
X125426847Y-101036839D01*
X125350442Y-101075042D01*
X125044820Y-101075042D01*
X126229103Y-100654812D02*
X125847076Y-100654812D01*
X125808874Y-101036839D01*
X125847076Y-100998636D01*
X125923482Y-100960434D01*
X126114495Y-100960434D01*
X126190900Y-100998636D01*
X126229103Y-101036839D01*
X126267306Y-101113244D01*
X126267306Y-101304258D01*
X126229103Y-101380663D01*
X126190900Y-101418866D01*
X126114495Y-101457068D01*
X125923482Y-101457068D01*
X125847076Y-101418866D01*
X125808874Y-101380663D01*
X126496521Y-100654812D02*
X126763940Y-101457068D01*
X127031359Y-100654812D01*
X127451588Y-100654812D02*
X127527993Y-100654812D01*
X127604399Y-100693015D01*
X127642601Y-100731218D01*
X127680804Y-100807623D01*
X127719007Y-100960434D01*
X127719007Y-101151447D01*
X127680804Y-101304258D01*
X127642601Y-101380663D01*
X127604399Y-101418866D01*
X127527993Y-101457068D01*
X127451588Y-101457068D01*
X127375183Y-101418866D01*
X127336980Y-101380663D01*
X127298777Y-101304258D01*
X127260575Y-101151447D01*
X127260575Y-100960434D01*
X127298777Y-100807623D01*
X127336980Y-100731218D01*
X127375183Y-100693015D01*
X127451588Y-100654812D01*
X128062830Y-100654812D02*
X128062830Y-101304258D01*
X128101033Y-101380663D01*
X128139236Y-101418866D01*
X128215641Y-101457068D01*
X128368452Y-101457068D01*
X128444857Y-101418866D01*
X128483060Y-101380663D01*
X128521262Y-101304258D01*
X128521262Y-100654812D01*
X128865087Y-100731218D02*
X128903289Y-100693015D01*
X128979695Y-100654812D01*
X129170708Y-100654812D01*
X129247113Y-100693015D01*
X129285316Y-100731218D01*
X129323519Y-100807623D01*
X129323519Y-100884028D01*
X129285316Y-100998636D01*
X128826884Y-101457068D01*
X129323519Y-101457068D01*
X129590937Y-100654812D02*
X130125774Y-101457068D01*
X130125774Y-100654812D02*
X129590937Y-101457068D01*
X130469598Y-101418866D02*
X130469598Y-101457068D01*
X130431395Y-101533474D01*
X130393193Y-101571676D01*
X130775220Y-100731218D02*
X130813422Y-100693015D01*
X130889828Y-100654812D01*
X131080841Y-100654812D01*
X131157246Y-100693015D01*
X131195449Y-100731218D01*
X131233652Y-100807623D01*
X131233652Y-100884028D01*
X131195449Y-100998636D01*
X130737017Y-101457068D01*
X131233652Y-101457068D01*
X131997705Y-101457068D02*
X131539273Y-101457068D01*
X131768489Y-101457068D02*
X131768489Y-100654812D01*
X131692083Y-100769420D01*
X131615678Y-100845826D01*
X131539273Y-100884028D01*
X132723555Y-100654812D02*
X132341528Y-100654812D01*
X132303326Y-101036839D01*
X132341528Y-100998636D01*
X132417934Y-100960434D01*
X132608947Y-100960434D01*
X132685352Y-100998636D01*
X132723555Y-101036839D01*
X132761758Y-101113244D01*
X132761758Y-101304258D01*
X132723555Y-101380663D01*
X132685352Y-101418866D01*
X132608947Y-101457068D01*
X132417934Y-101457068D01*
X132341528Y-101418866D01*
X132303326Y-101380663D01*
D11*
X153114619Y-102330238D02*
X153067000Y-102425476D01*
X152971762Y-102520714D01*
X152828905Y-102663571D01*
X152781286Y-102758810D01*
X152781286Y-102854048D01*
X153019381Y-102806429D02*
X152971762Y-102901667D01*
X152876524Y-102996905D01*
X152686048Y-103044524D01*
X152352714Y-103044524D01*
X152162238Y-102996905D01*
X152067000Y-102901667D01*
X152019381Y-102806429D01*
X152019381Y-102615952D01*
X152067000Y-102520714D01*
X152162238Y-102425476D01*
X152352714Y-102377857D01*
X152686048Y-102377857D01*
X152876524Y-102425476D01*
X152971762Y-102520714D01*
X153019381Y-102615952D01*
X153019381Y-102806429D01*
X153019381Y-101425476D02*
X153019381Y-101996905D01*
X153019381Y-101711191D02*
X152019381Y-101711191D01*
X152162238Y-101806429D01*
X152257476Y-101901667D01*
X152305095Y-101996905D01*
X153114619Y-109950238D02*
X153067000Y-110045476D01*
X152971762Y-110140714D01*
X152828905Y-110283571D01*
X152781286Y-110378810D01*
X152781286Y-110474048D01*
X153019381Y-110426429D02*
X152971762Y-110521667D01*
X152876524Y-110616905D01*
X152686048Y-110664524D01*
X152352714Y-110664524D01*
X152162238Y-110616905D01*
X152067000Y-110521667D01*
X152019381Y-110426429D01*
X152019381Y-110235952D01*
X152067000Y-110140714D01*
X152162238Y-110045476D01*
X152352714Y-109997857D01*
X152686048Y-109997857D01*
X152876524Y-110045476D01*
X152971762Y-110140714D01*
X153019381Y-110235952D01*
X153019381Y-110426429D01*
X152114619Y-109616905D02*
X152067000Y-109569286D01*
X152019381Y-109474048D01*
X152019381Y-109235952D01*
X152067000Y-109140714D01*
X152114619Y-109093095D01*
X152209857Y-109045476D01*
X152305095Y-109045476D01*
X152447952Y-109093095D01*
X153019381Y-109664524D01*
X153019381Y-109045476D01*
X160734619Y-102330238D02*
X160687000Y-102425476D01*
X160591762Y-102520714D01*
X160448905Y-102663571D01*
X160401286Y-102758810D01*
X160401286Y-102854048D01*
X160639381Y-102806429D02*
X160591762Y-102901667D01*
X160496524Y-102996905D01*
X160306048Y-103044524D01*
X159972714Y-103044524D01*
X159782238Y-102996905D01*
X159687000Y-102901667D01*
X159639381Y-102806429D01*
X159639381Y-102615952D01*
X159687000Y-102520714D01*
X159782238Y-102425476D01*
X159972714Y-102377857D01*
X160306048Y-102377857D01*
X160496524Y-102425476D01*
X160591762Y-102520714D01*
X160639381Y-102615952D01*
X160639381Y-102806429D01*
X159639381Y-102044524D02*
X159639381Y-101425476D01*
X160020333Y-101758810D01*
X160020333Y-101615952D01*
X160067952Y-101520714D01*
X160115571Y-101473095D01*
X160210810Y-101425476D01*
X160448905Y-101425476D01*
X160544143Y-101473095D01*
X160591762Y-101520714D01*
X160639381Y-101615952D01*
X160639381Y-101901667D01*
X160591762Y-101996905D01*
X160544143Y-102044524D01*
X160734619Y-109950238D02*
X160687000Y-110045476D01*
X160591762Y-110140714D01*
X160448905Y-110283571D01*
X160401286Y-110378810D01*
X160401286Y-110474048D01*
X160639381Y-110426429D02*
X160591762Y-110521667D01*
X160496524Y-110616905D01*
X160306048Y-110664524D01*
X159972714Y-110664524D01*
X159782238Y-110616905D01*
X159687000Y-110521667D01*
X159639381Y-110426429D01*
X159639381Y-110235952D01*
X159687000Y-110140714D01*
X159782238Y-110045476D01*
X159972714Y-109997857D01*
X160306048Y-109997857D01*
X160496524Y-110045476D01*
X160591762Y-110140714D01*
X160639381Y-110235952D01*
X160639381Y-110426429D01*
X159972714Y-109140714D02*
X160639381Y-109140714D01*
X159591762Y-109378810D02*
X160306048Y-109616905D01*
X160306048Y-108997857D01*
X141743134Y-110594543D02*
X141695515Y-110642162D01*
X141552658Y-110689781D01*
X141457420Y-110689781D01*
X141314562Y-110642162D01*
X141219324Y-110546924D01*
X141171705Y-110451686D01*
X141124086Y-110261210D01*
X141124086Y-110118352D01*
X141171705Y-109927876D01*
X141219324Y-109832638D01*
X141314562Y-109737400D01*
X141457420Y-109689781D01*
X141552658Y-109689781D01*
X141695515Y-109737400D01*
X141743134Y-109785019D01*
X142695515Y-110689781D02*
X142124086Y-110689781D01*
X142409800Y-110689781D02*
X142409800Y-109689781D01*
X142314562Y-109832638D01*
X142219324Y-109927876D01*
X142124086Y-109975495D01*
X136955234Y-107556443D02*
X136907615Y-107604062D01*
X136764758Y-107651681D01*
X136669520Y-107651681D01*
X136526662Y-107604062D01*
X136431424Y-107508824D01*
X136383805Y-107413586D01*
X136336186Y-107223110D01*
X136336186Y-107080252D01*
X136383805Y-106889776D01*
X136431424Y-106794538D01*
X136526662Y-106699300D01*
X136669520Y-106651681D01*
X136764758Y-106651681D01*
X136907615Y-106699300D01*
X136955234Y-106746919D01*
X137336186Y-106746919D02*
X137383805Y-106699300D01*
X137479043Y-106651681D01*
X137717139Y-106651681D01*
X137812377Y-106699300D01*
X137859996Y-106746919D01*
X137907615Y-106842157D01*
X137907615Y-106937395D01*
X137859996Y-107080252D01*
X137288567Y-107651681D01*
X137907615Y-107651681D01*
X132167334Y-108089843D02*
X132119715Y-108137462D01*
X131976858Y-108185081D01*
X131881620Y-108185081D01*
X131738762Y-108137462D01*
X131643524Y-108042224D01*
X131595905Y-107946986D01*
X131548286Y-107756510D01*
X131548286Y-107613652D01*
X131595905Y-107423176D01*
X131643524Y-107327938D01*
X131738762Y-107232700D01*
X131881620Y-107185081D01*
X131976858Y-107185081D01*
X132119715Y-107232700D01*
X132167334Y-107280319D01*
X132500667Y-107185081D02*
X133119715Y-107185081D01*
X132786381Y-107566033D01*
X132929239Y-107566033D01*
X133024477Y-107613652D01*
X133072096Y-107661271D01*
X133119715Y-107756510D01*
X133119715Y-107994605D01*
X133072096Y-108089843D01*
X133024477Y-108137462D01*
X132929239Y-108185081D01*
X132643524Y-108185081D01*
X132548286Y-108137462D01*
X132500667Y-108089843D01*
X128463443Y-101372966D02*
X128511062Y-101420585D01*
X128558681Y-101563442D01*
X128558681Y-101658680D01*
X128511062Y-101801538D01*
X128415824Y-101896776D01*
X128320586Y-101944395D01*
X128130110Y-101992014D01*
X127987252Y-101992014D01*
X127796776Y-101944395D01*
X127701538Y-101896776D01*
X127606300Y-101801538D01*
X127558681Y-101658680D01*
X127558681Y-101563442D01*
X127606300Y-101420585D01*
X127653919Y-101372966D01*
X127892014Y-100515823D02*
X128558681Y-100515823D01*
X127511062Y-100753919D02*
X128225348Y-100992014D01*
X128225348Y-100372966D01*
X125690334Y-96012143D02*
X125642715Y-96059762D01*
X125499858Y-96107381D01*
X125404620Y-96107381D01*
X125261762Y-96059762D01*
X125166524Y-95964524D01*
X125118905Y-95869286D01*
X125071286Y-95678810D01*
X125071286Y-95535952D01*
X125118905Y-95345476D01*
X125166524Y-95250238D01*
X125261762Y-95155000D01*
X125404620Y-95107381D01*
X125499858Y-95107381D01*
X125642715Y-95155000D01*
X125690334Y-95202619D01*
X126595096Y-95107381D02*
X126118905Y-95107381D01*
X126071286Y-95583571D01*
X126118905Y-95535952D01*
X126214143Y-95488333D01*
X126452239Y-95488333D01*
X126547477Y-95535952D01*
X126595096Y-95583571D01*
X126642715Y-95678810D01*
X126642715Y-95916905D01*
X126595096Y-96012143D01*
X126547477Y-96059762D01*
X126452239Y-96107381D01*
X126214143Y-96107381D01*
X126118905Y-96059762D01*
X126071286Y-96012143D01*
X132154634Y-109819843D02*
X132107015Y-109867462D01*
X131964158Y-109915081D01*
X131868920Y-109915081D01*
X131726062Y-109867462D01*
X131630824Y-109772224D01*
X131583205Y-109676986D01*
X131535586Y-109486510D01*
X131535586Y-109343652D01*
X131583205Y-109153176D01*
X131630824Y-109057938D01*
X131726062Y-108962700D01*
X131868920Y-108915081D01*
X131964158Y-108915081D01*
X132107015Y-108962700D01*
X132154634Y-109010319D01*
X133011777Y-108915081D02*
X132821300Y-108915081D01*
X132726062Y-108962700D01*
X132678443Y-109010319D01*
X132583205Y-109153176D01*
X132535586Y-109343652D01*
X132535586Y-109724605D01*
X132583205Y-109819843D01*
X132630824Y-109867462D01*
X132726062Y-109915081D01*
X132916539Y-109915081D01*
X133011777Y-109867462D01*
X133059396Y-109819843D01*
X133107015Y-109724605D01*
X133107015Y-109486510D01*
X133059396Y-109391271D01*
X133011777Y-109343652D01*
X132916539Y-109296033D01*
X132726062Y-109296033D01*
X132630824Y-109343652D01*
X132583205Y-109391271D01*
X132535586Y-109486510D01*
X140563743Y-104509866D02*
X140611362Y-104557485D01*
X140658981Y-104700342D01*
X140658981Y-104795580D01*
X140611362Y-104938438D01*
X140516124Y-105033676D01*
X140420886Y-105081295D01*
X140230410Y-105128914D01*
X140087552Y-105128914D01*
X139897076Y-105081295D01*
X139801838Y-105033676D01*
X139706600Y-104938438D01*
X139658981Y-104795580D01*
X139658981Y-104700342D01*
X139706600Y-104557485D01*
X139754219Y-104509866D01*
X139658981Y-104176533D02*
X139658981Y-103509866D01*
X140658981Y-103938438D01*
X137755334Y-91567143D02*
X137707715Y-91614762D01*
X137564858Y-91662381D01*
X137469620Y-91662381D01*
X137326762Y-91614762D01*
X137231524Y-91519524D01*
X137183905Y-91424286D01*
X137136286Y-91233810D01*
X137136286Y-91090952D01*
X137183905Y-90900476D01*
X137231524Y-90805238D01*
X137326762Y-90710000D01*
X137469620Y-90662381D01*
X137564858Y-90662381D01*
X137707715Y-90710000D01*
X137755334Y-90757619D01*
X138326762Y-91090952D02*
X138231524Y-91043333D01*
X138183905Y-90995714D01*
X138136286Y-90900476D01*
X138136286Y-90852857D01*
X138183905Y-90757619D01*
X138231524Y-90710000D01*
X138326762Y-90662381D01*
X138517239Y-90662381D01*
X138612477Y-90710000D01*
X138660096Y-90757619D01*
X138707715Y-90852857D01*
X138707715Y-90900476D01*
X138660096Y-90995714D01*
X138612477Y-91043333D01*
X138517239Y-91090952D01*
X138326762Y-91090952D01*
X138231524Y-91138571D01*
X138183905Y-91186190D01*
X138136286Y-91281429D01*
X138136286Y-91471905D01*
X138183905Y-91567143D01*
X138231524Y-91614762D01*
X138326762Y-91662381D01*
X138517239Y-91662381D01*
X138612477Y-91614762D01*
X138660096Y-91567143D01*
X138707715Y-91471905D01*
X138707715Y-91281429D01*
X138660096Y-91186190D01*
X138612477Y-91138571D01*
X138517239Y-91090952D01*
X130135334Y-94567143D02*
X130087715Y-94614762D01*
X129944858Y-94662381D01*
X129849620Y-94662381D01*
X129706762Y-94614762D01*
X129611524Y-94519524D01*
X129563905Y-94424286D01*
X129516286Y-94233810D01*
X129516286Y-94090952D01*
X129563905Y-93900476D01*
X129611524Y-93805238D01*
X129706762Y-93710000D01*
X129849620Y-93662381D01*
X129944858Y-93662381D01*
X130087715Y-93710000D01*
X130135334Y-93757619D01*
X130611524Y-94662381D02*
X130802000Y-94662381D01*
X130897239Y-94614762D01*
X130944858Y-94567143D01*
X131040096Y-94424286D01*
X131087715Y-94233810D01*
X131087715Y-93852857D01*
X131040096Y-93757619D01*
X130992477Y-93710000D01*
X130897239Y-93662381D01*
X130706762Y-93662381D01*
X130611524Y-93710000D01*
X130563905Y-93757619D01*
X130516286Y-93852857D01*
X130516286Y-94090952D01*
X130563905Y-94186190D01*
X130611524Y-94233810D01*
X130706762Y-94281429D01*
X130897239Y-94281429D01*
X130992477Y-94233810D01*
X131040096Y-94186190D01*
X131087715Y-94090952D01*
X162294143Y-95257857D02*
X162341762Y-95305476D01*
X162389381Y-95448333D01*
X162389381Y-95543571D01*
X162341762Y-95686429D01*
X162246524Y-95781667D01*
X162151286Y-95829286D01*
X161960810Y-95876905D01*
X161817952Y-95876905D01*
X161627476Y-95829286D01*
X161532238Y-95781667D01*
X161437000Y-95686429D01*
X161389381Y-95543571D01*
X161389381Y-95448333D01*
X161437000Y-95305476D01*
X161484619Y-95257857D01*
X162389381Y-94305476D02*
X162389381Y-94876905D01*
X162389381Y-94591191D02*
X161389381Y-94591191D01*
X161532238Y-94686429D01*
X161627476Y-94781667D01*
X161675095Y-94876905D01*
X161389381Y-93686429D02*
X161389381Y-93591190D01*
X161437000Y-93495952D01*
X161484619Y-93448333D01*
X161579857Y-93400714D01*
X161770333Y-93353095D01*
X162008429Y-93353095D01*
X162198905Y-93400714D01*
X162294143Y-93448333D01*
X162341762Y-93495952D01*
X162389381Y-93591190D01*
X162389381Y-93686429D01*
X162341762Y-93781667D01*
X162294143Y-93829286D01*
X162198905Y-93876905D01*
X162008429Y-93924524D01*
X161770333Y-93924524D01*
X161579857Y-93876905D01*
X161484619Y-93829286D01*
X161437000Y-93781667D01*
X161389381Y-93686429D01*
X163608429Y-90715952D02*
X163608429Y-89954047D01*
X163989381Y-90334999D02*
X163227476Y-90334999D01*
X159464143Y-97797857D02*
X159511762Y-97845476D01*
X159559381Y-97988333D01*
X159559381Y-98083571D01*
X159511762Y-98226429D01*
X159416524Y-98321667D01*
X159321286Y-98369286D01*
X159130810Y-98416905D01*
X158987952Y-98416905D01*
X158797476Y-98369286D01*
X158702238Y-98321667D01*
X158607000Y-98226429D01*
X158559381Y-98083571D01*
X158559381Y-97988333D01*
X158607000Y-97845476D01*
X158654619Y-97797857D01*
X159559381Y-96845476D02*
X159559381Y-97416905D01*
X159559381Y-97131191D02*
X158559381Y-97131191D01*
X158702238Y-97226429D01*
X158797476Y-97321667D01*
X158845095Y-97416905D01*
X159559381Y-95893095D02*
X159559381Y-96464524D01*
X159559381Y-96178810D02*
X158559381Y-96178810D01*
X158702238Y-96274048D01*
X158797476Y-96369286D01*
X158845095Y-96464524D01*
X155059143Y-95377143D02*
X155011524Y-95424762D01*
X154868667Y-95472381D01*
X154773429Y-95472381D01*
X154630571Y-95424762D01*
X154535333Y-95329524D01*
X154487714Y-95234286D01*
X154440095Y-95043810D01*
X154440095Y-94900952D01*
X154487714Y-94710476D01*
X154535333Y-94615238D01*
X154630571Y-94520000D01*
X154773429Y-94472381D01*
X154868667Y-94472381D01*
X155011524Y-94520000D01*
X155059143Y-94567619D01*
X156011524Y-95472381D02*
X155440095Y-95472381D01*
X155725809Y-95472381D02*
X155725809Y-94472381D01*
X155630571Y-94615238D01*
X155535333Y-94710476D01*
X155440095Y-94758095D01*
X156392476Y-94567619D02*
X156440095Y-94520000D01*
X156535333Y-94472381D01*
X156773429Y-94472381D01*
X156868667Y-94520000D01*
X156916286Y-94567619D01*
X156963905Y-94662857D01*
X156963905Y-94758095D01*
X156916286Y-94900952D01*
X156344857Y-95472381D01*
X156963905Y-95472381D01*
X155059143Y-96647143D02*
X155011524Y-96694762D01*
X154868667Y-96742381D01*
X154773429Y-96742381D01*
X154630571Y-96694762D01*
X154535333Y-96599524D01*
X154487714Y-96504286D01*
X154440095Y-96313810D01*
X154440095Y-96170952D01*
X154487714Y-95980476D01*
X154535333Y-95885238D01*
X154630571Y-95790000D01*
X154773429Y-95742381D01*
X154868667Y-95742381D01*
X155011524Y-95790000D01*
X155059143Y-95837619D01*
X156011524Y-96742381D02*
X155440095Y-96742381D01*
X155725809Y-96742381D02*
X155725809Y-95742381D01*
X155630571Y-95885238D01*
X155535333Y-95980476D01*
X155440095Y-96028095D01*
X156344857Y-95742381D02*
X156963905Y-95742381D01*
X156630571Y-96123333D01*
X156773429Y-96123333D01*
X156868667Y-96170952D01*
X156916286Y-96218571D01*
X156963905Y-96313810D01*
X156963905Y-96551905D01*
X156916286Y-96647143D01*
X156868667Y-96694762D01*
X156773429Y-96742381D01*
X156487714Y-96742381D01*
X156392476Y-96694762D01*
X156344857Y-96647143D01*
X160678905Y-92547381D02*
X160678905Y-91547381D01*
X160917000Y-91547381D01*
X161059858Y-91595000D01*
X161155096Y-91690238D01*
X161202715Y-91785476D01*
X161250334Y-91975952D01*
X161250334Y-92118810D01*
X161202715Y-92309286D01*
X161155096Y-92404524D01*
X161059858Y-92499762D01*
X160917000Y-92547381D01*
X160678905Y-92547381D01*
X161631286Y-91642619D02*
X161678905Y-91595000D01*
X161774143Y-91547381D01*
X162012239Y-91547381D01*
X162107477Y-91595000D01*
X162155096Y-91642619D01*
X162202715Y-91737857D01*
X162202715Y-91833095D01*
X162155096Y-91975952D01*
X161583667Y-92547381D01*
X162202715Y-92547381D01*
X143474381Y-107418095D02*
X142474381Y-107418095D01*
X142474381Y-107180000D01*
X142522000Y-107037142D01*
X142617238Y-106941904D01*
X142712476Y-106894285D01*
X142902952Y-106846666D01*
X143045810Y-106846666D01*
X143236286Y-106894285D01*
X143331524Y-106941904D01*
X143426762Y-107037142D01*
X143474381Y-107180000D01*
X143474381Y-107418095D01*
X142474381Y-106513333D02*
X142474381Y-105894285D01*
X142855333Y-106227619D01*
X142855333Y-106084761D01*
X142902952Y-105989523D01*
X142950571Y-105941904D01*
X143045810Y-105894285D01*
X143283905Y-105894285D01*
X143379143Y-105941904D01*
X143426762Y-105989523D01*
X143474381Y-106084761D01*
X143474381Y-106370476D01*
X143426762Y-106465714D01*
X143379143Y-106513333D01*
X145379381Y-107418095D02*
X144379381Y-107418095D01*
X144379381Y-107180000D01*
X144427000Y-107037142D01*
X144522238Y-106941904D01*
X144617476Y-106894285D01*
X144807952Y-106846666D01*
X144950810Y-106846666D01*
X145141286Y-106894285D01*
X145236524Y-106941904D01*
X145331762Y-107037142D01*
X145379381Y-107180000D01*
X145379381Y-107418095D01*
X144712714Y-105989523D02*
X145379381Y-105989523D01*
X144331762Y-106227619D02*
X145046048Y-106465714D01*
X145046048Y-105846666D01*
X160678905Y-97202381D02*
X160678905Y-96202381D01*
X160917000Y-96202381D01*
X161059858Y-96250000D01*
X161155096Y-96345238D01*
X161202715Y-96440476D01*
X161250334Y-96630952D01*
X161250334Y-96773810D01*
X161202715Y-96964286D01*
X161155096Y-97059524D01*
X161059858Y-97154762D01*
X160917000Y-97202381D01*
X160678905Y-97202381D01*
X162155096Y-96202381D02*
X161678905Y-96202381D01*
X161631286Y-96678571D01*
X161678905Y-96630952D01*
X161774143Y-96583333D01*
X162012239Y-96583333D01*
X162107477Y-96630952D01*
X162155096Y-96678571D01*
X162202715Y-96773810D01*
X162202715Y-97011905D01*
X162155096Y-97107143D01*
X162107477Y-97154762D01*
X162012239Y-97202381D01*
X161774143Y-97202381D01*
X161678905Y-97154762D01*
X161631286Y-97107143D01*
X119024381Y-100663333D02*
X119738667Y-100663333D01*
X119881524Y-100710953D01*
X119976762Y-100806191D01*
X120024381Y-100949048D01*
X120024381Y-101044286D01*
X120024381Y-99663333D02*
X120024381Y-100234762D01*
X120024381Y-99949048D02*
X119024381Y-99949048D01*
X119167238Y-100044286D01*
X119262476Y-100139524D01*
X119310095Y-100234762D01*
X174482167Y-97989581D02*
X174482167Y-98703867D01*
X174434547Y-98846724D01*
X174339309Y-98941962D01*
X174196452Y-98989581D01*
X174101214Y-98989581D01*
X174910738Y-98084819D02*
X174958357Y-98037200D01*
X175053595Y-97989581D01*
X175291691Y-97989581D01*
X175386929Y-98037200D01*
X175434548Y-98084819D01*
X175482167Y-98180057D01*
X175482167Y-98275295D01*
X175434548Y-98418152D01*
X174863119Y-98989581D01*
X175482167Y-98989581D01*
X156769381Y-106378333D02*
X157483667Y-106378333D01*
X157626524Y-106425953D01*
X157721762Y-106521191D01*
X157769381Y-106664048D01*
X157769381Y-106759286D01*
X156769381Y-105997381D02*
X156769381Y-105378333D01*
X157150333Y-105711667D01*
X157150333Y-105568809D01*
X157197952Y-105473571D01*
X157245571Y-105425952D01*
X157340810Y-105378333D01*
X157578905Y-105378333D01*
X157674143Y-105425952D01*
X157721762Y-105473571D01*
X157769381Y-105568809D01*
X157769381Y-105854524D01*
X157721762Y-105949762D01*
X157674143Y-105997381D01*
X131874181Y-108764366D02*
X131397990Y-109097700D01*
X131874181Y-109335795D02*
X130874181Y-109335795D01*
X130874181Y-108954842D01*
X130921800Y-108859604D01*
X130969419Y-108811985D01*
X131064657Y-108764366D01*
X131207514Y-108764366D01*
X131302752Y-108811985D01*
X131350371Y-108859604D01*
X131397990Y-108954842D01*
X131397990Y-109335795D01*
X131874181Y-107811985D02*
X131874181Y-108383414D01*
X131874181Y-108097700D02*
X130874181Y-108097700D01*
X131017038Y-108192938D01*
X131112276Y-108288176D01*
X131159895Y-108383414D01*
X149820334Y-106677381D02*
X149487000Y-106201190D01*
X149248905Y-106677381D02*
X149248905Y-105677381D01*
X149629858Y-105677381D01*
X149725096Y-105725000D01*
X149772715Y-105772619D01*
X149820334Y-105867857D01*
X149820334Y-106010714D01*
X149772715Y-106105952D01*
X149725096Y-106153571D01*
X149629858Y-106201190D01*
X149248905Y-106201190D01*
X150201286Y-105772619D02*
X150248905Y-105725000D01*
X150344143Y-105677381D01*
X150582239Y-105677381D01*
X150677477Y-105725000D01*
X150725096Y-105772619D01*
X150772715Y-105867857D01*
X150772715Y-105963095D01*
X150725096Y-106105952D01*
X150153667Y-106677381D01*
X150772715Y-106677381D01*
X149820334Y-107947381D02*
X149487000Y-107471190D01*
X149248905Y-107947381D02*
X149248905Y-106947381D01*
X149629858Y-106947381D01*
X149725096Y-106995000D01*
X149772715Y-107042619D01*
X149820334Y-107137857D01*
X149820334Y-107280714D01*
X149772715Y-107375952D01*
X149725096Y-107423571D01*
X149629858Y-107471190D01*
X149248905Y-107471190D01*
X150153667Y-106947381D02*
X150772715Y-106947381D01*
X150439381Y-107328333D01*
X150582239Y-107328333D01*
X150677477Y-107375952D01*
X150725096Y-107423571D01*
X150772715Y-107518810D01*
X150772715Y-107756905D01*
X150725096Y-107852143D01*
X150677477Y-107899762D01*
X150582239Y-107947381D01*
X150296524Y-107947381D01*
X150201286Y-107899762D01*
X150153667Y-107852143D01*
X149820334Y-111757381D02*
X149487000Y-111281190D01*
X149248905Y-111757381D02*
X149248905Y-110757381D01*
X149629858Y-110757381D01*
X149725096Y-110805000D01*
X149772715Y-110852619D01*
X149820334Y-110947857D01*
X149820334Y-111090714D01*
X149772715Y-111185952D01*
X149725096Y-111233571D01*
X149629858Y-111281190D01*
X149248905Y-111281190D01*
X150677477Y-111090714D02*
X150677477Y-111757381D01*
X150439381Y-110709762D02*
X150201286Y-111424048D01*
X150820334Y-111424048D01*
X149820334Y-113027381D02*
X149487000Y-112551190D01*
X149248905Y-113027381D02*
X149248905Y-112027381D01*
X149629858Y-112027381D01*
X149725096Y-112075000D01*
X149772715Y-112122619D01*
X149820334Y-112217857D01*
X149820334Y-112360714D01*
X149772715Y-112455952D01*
X149725096Y-112503571D01*
X149629858Y-112551190D01*
X149248905Y-112551190D01*
X150725096Y-112027381D02*
X150248905Y-112027381D01*
X150201286Y-112503571D01*
X150248905Y-112455952D01*
X150344143Y-112408333D01*
X150582239Y-112408333D01*
X150677477Y-112455952D01*
X150725096Y-112503571D01*
X150772715Y-112598810D01*
X150772715Y-112836905D01*
X150725096Y-112932143D01*
X150677477Y-112979762D01*
X150582239Y-113027381D01*
X150344143Y-113027381D01*
X150248905Y-112979762D01*
X150201286Y-112932143D01*
X143274381Y-103671666D02*
X142798190Y-104005000D01*
X143274381Y-104243095D02*
X142274381Y-104243095D01*
X142274381Y-103862142D01*
X142322000Y-103766904D01*
X142369619Y-103719285D01*
X142464857Y-103671666D01*
X142607714Y-103671666D01*
X142702952Y-103719285D01*
X142750571Y-103766904D01*
X142798190Y-103862142D01*
X142798190Y-104243095D01*
X142274381Y-102814523D02*
X142274381Y-103005000D01*
X142322000Y-103100238D01*
X142369619Y-103147857D01*
X142512476Y-103243095D01*
X142702952Y-103290714D01*
X143083905Y-103290714D01*
X143179143Y-103243095D01*
X143226762Y-103195476D01*
X143274381Y-103100238D01*
X143274381Y-102909761D01*
X143226762Y-102814523D01*
X143179143Y-102766904D01*
X143083905Y-102719285D01*
X142845810Y-102719285D01*
X142750571Y-102766904D01*
X142702952Y-102814523D01*
X142655333Y-102909761D01*
X142655333Y-103100238D01*
X142702952Y-103195476D01*
X142750571Y-103243095D01*
X142845810Y-103290714D01*
X145179381Y-103671666D02*
X144703190Y-104005000D01*
X145179381Y-104243095D02*
X144179381Y-104243095D01*
X144179381Y-103862142D01*
X144227000Y-103766904D01*
X144274619Y-103719285D01*
X144369857Y-103671666D01*
X144512714Y-103671666D01*
X144607952Y-103719285D01*
X144655571Y-103766904D01*
X144703190Y-103862142D01*
X144703190Y-104243095D01*
X144179381Y-103338333D02*
X144179381Y-102671666D01*
X145179381Y-103100238D01*
X161250334Y-93977381D02*
X160917000Y-93501190D01*
X160678905Y-93977381D02*
X160678905Y-92977381D01*
X161059858Y-92977381D01*
X161155096Y-93025000D01*
X161202715Y-93072619D01*
X161250334Y-93167857D01*
X161250334Y-93310714D01*
X161202715Y-93405952D01*
X161155096Y-93453571D01*
X161059858Y-93501190D01*
X160678905Y-93501190D01*
X161821762Y-93405952D02*
X161726524Y-93358333D01*
X161678905Y-93310714D01*
X161631286Y-93215476D01*
X161631286Y-93167857D01*
X161678905Y-93072619D01*
X161726524Y-93025000D01*
X161821762Y-92977381D01*
X162012239Y-92977381D01*
X162107477Y-93025000D01*
X162155096Y-93072619D01*
X162202715Y-93167857D01*
X162202715Y-93215476D01*
X162155096Y-93310714D01*
X162107477Y-93358333D01*
X162012239Y-93405952D01*
X161821762Y-93405952D01*
X161726524Y-93453571D01*
X161678905Y-93501190D01*
X161631286Y-93596429D01*
X161631286Y-93786905D01*
X161678905Y-93882143D01*
X161726524Y-93929762D01*
X161821762Y-93977381D01*
X162012239Y-93977381D01*
X162107477Y-93929762D01*
X162155096Y-93882143D01*
X162202715Y-93786905D01*
X162202715Y-93596429D01*
X162155096Y-93501190D01*
X162107477Y-93453571D01*
X162012239Y-93405952D01*
X162520334Y-107947381D02*
X162187000Y-107471190D01*
X161948905Y-107947381D02*
X161948905Y-106947381D01*
X162329858Y-106947381D01*
X162425096Y-106995000D01*
X162472715Y-107042619D01*
X162520334Y-107137857D01*
X162520334Y-107280714D01*
X162472715Y-107375952D01*
X162425096Y-107423571D01*
X162329858Y-107471190D01*
X161948905Y-107471190D01*
X162996524Y-107947381D02*
X163187000Y-107947381D01*
X163282239Y-107899762D01*
X163329858Y-107852143D01*
X163425096Y-107709286D01*
X163472715Y-107518810D01*
X163472715Y-107137857D01*
X163425096Y-107042619D01*
X163377477Y-106995000D01*
X163282239Y-106947381D01*
X163091762Y-106947381D01*
X162996524Y-106995000D01*
X162948905Y-107042619D01*
X162901286Y-107137857D01*
X162901286Y-107375952D01*
X162948905Y-107471190D01*
X162996524Y-107518810D01*
X163091762Y-107566429D01*
X163282239Y-107566429D01*
X163377477Y-107518810D01*
X163425096Y-107471190D01*
X163472715Y-107375952D01*
X133350095Y-92332381D02*
X133350095Y-93141905D01*
X133397714Y-93237143D01*
X133445333Y-93284762D01*
X133540571Y-93332381D01*
X133731048Y-93332381D01*
X133826286Y-93284762D01*
X133873905Y-93237143D01*
X133921524Y-93141905D01*
X133921524Y-92332381D01*
X134921524Y-93332381D02*
X134350095Y-93332381D01*
X134635809Y-93332381D02*
X134635809Y-92332381D01*
X134540571Y-92475238D01*
X134445333Y-92570476D01*
X134350095Y-92618095D01*
X152589381Y-93656905D02*
X153398905Y-93656905D01*
X153494143Y-93609286D01*
X153541762Y-93561667D01*
X153589381Y-93466429D01*
X153589381Y-93275952D01*
X153541762Y-93180714D01*
X153494143Y-93133095D01*
X153398905Y-93085476D01*
X152589381Y-93085476D01*
X152684619Y-92656905D02*
X152637000Y-92609286D01*
X152589381Y-92514048D01*
X152589381Y-92275952D01*
X152637000Y-92180714D01*
X152684619Y-92133095D01*
X152779857Y-92085476D01*
X152875095Y-92085476D01*
X153017952Y-92133095D01*
X153589381Y-92704524D01*
X153589381Y-92085476D01*
X140163609Y-115540190D02*
X140163609Y-116016381D01*
X139830276Y-115016381D02*
X140163609Y-115540190D01*
X140496943Y-115016381D01*
X141354086Y-116016381D02*
X140782657Y-116016381D01*
X141068371Y-116016381D02*
X141068371Y-115016381D01*
X140973133Y-115159238D01*
X140877895Y-115254476D01*
X140782657Y-115302095D01*
M02*
