G04 #@! TF.FileFunction,Copper,L2,Bot,Signal*
%FSLAX46Y46*%
G04 Gerber Fmt 4.6, Leading zero omitted, Abs format (unit mm)*
G04 Created by KiCad (PCBNEW 4.0.6) date 03/11/18 17:34:21*
%MOMM*%
%LPD*%
G01*
G04 APERTURE LIST*
%ADD10C,0.100000*%
%ADD11O,0.950000X1.250000*%
%ADD12O,1.550000X1.000000*%
%ADD13R,0.850000X0.850000*%
%ADD14O,0.850000X0.850000*%
%ADD15C,0.600000*%
%ADD16C,0.250000*%
%ADD17C,0.254000*%
G04 APERTURE END LIST*
D10*
D11*
X117682000Y-97830000D03*
X117682000Y-102830000D03*
D12*
X114982000Y-96830000D03*
X114982000Y-103830000D03*
D13*
X174815500Y-96977200D03*
D14*
X174815500Y-95977200D03*
D13*
X158877000Y-106045000D03*
D14*
X159877000Y-106045000D03*
D15*
X121742200Y-97993200D03*
X130200400Y-101142800D03*
X160655000Y-101307900D03*
X160604200Y-98907600D03*
X152488900Y-106006900D03*
X159880300Y-103378000D03*
X153035000Y-94615000D03*
X140462000Y-94615000D03*
X170395900Y-104267000D03*
X162077400Y-104825800D03*
X136436100Y-97193100D03*
X170535600Y-107924600D03*
D16*
X127050800Y-97993200D02*
X121742200Y-97993200D01*
X130200400Y-101142800D02*
X127050800Y-97993200D01*
X160655000Y-98958400D02*
X160655000Y-101307900D01*
X160604200Y-98907600D02*
X160655000Y-98958400D01*
X152488900Y-106006900D02*
X155117800Y-103378000D01*
X155117800Y-103378000D02*
X159880300Y-103378000D01*
X140462000Y-94615000D02*
X153035000Y-94615000D01*
X169900600Y-104762300D02*
X170395900Y-104267000D01*
X162140900Y-104762300D02*
X169900600Y-104762300D01*
X162077400Y-104825800D02*
X162140900Y-104762300D01*
X136436100Y-98679000D02*
X136436100Y-97193100D01*
X145656300Y-107899200D02*
X136436100Y-98679000D01*
X170510200Y-107899200D02*
X145656300Y-107899200D01*
X170535600Y-107924600D02*
X170510200Y-107899200D01*
D17*
G36*
X175947000Y-114225000D02*
X113232000Y-114225000D01*
X113232000Y-104131874D01*
X113612881Y-104131874D01*
X113814632Y-104542763D01*
X114155322Y-104830002D01*
X114580000Y-104965000D01*
X114855000Y-104965000D01*
X114855000Y-103957000D01*
X115109000Y-103957000D01*
X115109000Y-104965000D01*
X115384000Y-104965000D01*
X115808678Y-104830002D01*
X116149368Y-104542763D01*
X116351119Y-104131874D01*
X116224954Y-103957000D01*
X115109000Y-103957000D01*
X114855000Y-103957000D01*
X113739046Y-103957000D01*
X113612881Y-104131874D01*
X113232000Y-104131874D01*
X113232000Y-103528126D01*
X113612881Y-103528126D01*
X113739046Y-103703000D01*
X114855000Y-103703000D01*
X114855000Y-102695000D01*
X115109000Y-102695000D01*
X115109000Y-103703000D01*
X116224954Y-103703000D01*
X116351119Y-103528126D01*
X116156191Y-103131131D01*
X116580771Y-103131131D01*
X116722432Y-103541049D01*
X117010179Y-103865552D01*
X117384062Y-104049268D01*
X117555000Y-103922734D01*
X117555000Y-102957000D01*
X117809000Y-102957000D01*
X117809000Y-103922734D01*
X117979938Y-104049268D01*
X118353821Y-103865552D01*
X118641568Y-103541049D01*
X118783229Y-103131131D01*
X118634563Y-102957000D01*
X117809000Y-102957000D01*
X117555000Y-102957000D01*
X116729437Y-102957000D01*
X116580771Y-103131131D01*
X116156191Y-103131131D01*
X116149368Y-103117237D01*
X115808678Y-102829998D01*
X115384000Y-102695000D01*
X115109000Y-102695000D01*
X114855000Y-102695000D01*
X114580000Y-102695000D01*
X114155322Y-102829998D01*
X113814632Y-103117237D01*
X113612881Y-103528126D01*
X113232000Y-103528126D01*
X113232000Y-102528869D01*
X116580771Y-102528869D01*
X116729437Y-102703000D01*
X117555000Y-102703000D01*
X117555000Y-101737266D01*
X117809000Y-101737266D01*
X117809000Y-102703000D01*
X118634563Y-102703000D01*
X118783229Y-102528869D01*
X118641568Y-102118951D01*
X118353821Y-101794448D01*
X117979938Y-101610732D01*
X117809000Y-101737266D01*
X117555000Y-101737266D01*
X117384062Y-101610732D01*
X117010179Y-101794448D01*
X116722432Y-102118951D01*
X116580771Y-102528869D01*
X113232000Y-102528869D01*
X113232000Y-98131131D01*
X116580771Y-98131131D01*
X116722432Y-98541049D01*
X117010179Y-98865552D01*
X117384062Y-99049268D01*
X117555000Y-98922734D01*
X117555000Y-97957000D01*
X117809000Y-97957000D01*
X117809000Y-98922734D01*
X117979938Y-99049268D01*
X118353821Y-98865552D01*
X118641568Y-98541049D01*
X118766905Y-98178367D01*
X120807038Y-98178367D01*
X120949083Y-98522143D01*
X121211873Y-98785392D01*
X121555401Y-98928038D01*
X121927367Y-98928362D01*
X122271143Y-98786317D01*
X122304318Y-98753200D01*
X126735998Y-98753200D01*
X129265278Y-101282480D01*
X129265238Y-101327967D01*
X129407283Y-101671743D01*
X129670073Y-101934992D01*
X130013601Y-102077638D01*
X130385567Y-102077962D01*
X130729343Y-101935917D01*
X130992592Y-101673127D01*
X131135238Y-101329599D01*
X131135562Y-100957633D01*
X130993517Y-100613857D01*
X130730727Y-100350608D01*
X130387199Y-100207962D01*
X130340323Y-100207921D01*
X127588201Y-97455799D01*
X127472166Y-97378267D01*
X135500938Y-97378267D01*
X135642983Y-97722043D01*
X135676100Y-97755218D01*
X135676100Y-98679000D01*
X135733952Y-98969839D01*
X135898699Y-99216401D01*
X145118899Y-108436601D01*
X145365461Y-108601348D01*
X145656300Y-108659200D01*
X169947781Y-108659200D01*
X170005273Y-108716792D01*
X170348801Y-108859438D01*
X170720767Y-108859762D01*
X171064543Y-108717717D01*
X171327792Y-108454927D01*
X171470438Y-108111399D01*
X171470762Y-107739433D01*
X171328717Y-107395657D01*
X171065927Y-107132408D01*
X170722399Y-106989762D01*
X170350433Y-106989438D01*
X170006657Y-107131483D01*
X169998927Y-107139200D01*
X145971102Y-107139200D01*
X145023969Y-106192067D01*
X151553738Y-106192067D01*
X151695783Y-106535843D01*
X151958573Y-106799092D01*
X152302101Y-106941738D01*
X152674067Y-106942062D01*
X153017843Y-106800017D01*
X153281092Y-106537227D01*
X153423738Y-106193699D01*
X153423779Y-106146823D01*
X153950602Y-105620000D01*
X157804560Y-105620000D01*
X157804560Y-106470000D01*
X157848838Y-106705317D01*
X157987910Y-106921441D01*
X158200110Y-107066431D01*
X158452000Y-107117440D01*
X159302000Y-107117440D01*
X159537317Y-107073162D01*
X159555079Y-107061733D01*
X159877000Y-107125767D01*
X160282644Y-107045079D01*
X160626533Y-106815300D01*
X160856312Y-106471411D01*
X160937000Y-106065767D01*
X160937000Y-106024233D01*
X160856312Y-105618589D01*
X160626533Y-105274700D01*
X160282644Y-105044921D01*
X160111947Y-105010967D01*
X161142238Y-105010967D01*
X161284283Y-105354743D01*
X161547073Y-105617992D01*
X161890601Y-105760638D01*
X162262567Y-105760962D01*
X162606343Y-105618917D01*
X162703129Y-105522300D01*
X169900600Y-105522300D01*
X170191439Y-105464448D01*
X170438001Y-105299701D01*
X170535580Y-105202122D01*
X170581067Y-105202162D01*
X170924843Y-105060117D01*
X171188092Y-104797327D01*
X171330738Y-104453799D01*
X171331062Y-104081833D01*
X171189017Y-103738057D01*
X170926227Y-103474808D01*
X170582699Y-103332162D01*
X170210733Y-103331838D01*
X169866957Y-103473883D01*
X169603708Y-103736673D01*
X169493409Y-104002300D01*
X162532329Y-104002300D01*
X162264199Y-103890962D01*
X161892233Y-103890638D01*
X161548457Y-104032683D01*
X161285208Y-104295473D01*
X161142562Y-104639001D01*
X161142238Y-105010967D01*
X160111947Y-105010967D01*
X159877000Y-104964233D01*
X159559484Y-105027391D01*
X159553890Y-105023569D01*
X159302000Y-104972560D01*
X158452000Y-104972560D01*
X158216683Y-105016838D01*
X158000559Y-105155910D01*
X157855569Y-105368110D01*
X157804560Y-105620000D01*
X153950602Y-105620000D01*
X155432602Y-104138000D01*
X159317837Y-104138000D01*
X159349973Y-104170192D01*
X159693501Y-104312838D01*
X160065467Y-104313162D01*
X160409243Y-104171117D01*
X160672492Y-103908327D01*
X160815138Y-103564799D01*
X160815462Y-103192833D01*
X160673417Y-102849057D01*
X160410627Y-102585808D01*
X160067099Y-102443162D01*
X159695133Y-102442838D01*
X159351357Y-102584883D01*
X159318182Y-102618000D01*
X155117800Y-102618000D01*
X154826961Y-102675852D01*
X154580399Y-102840599D01*
X152349220Y-105071778D01*
X152303733Y-105071738D01*
X151959957Y-105213783D01*
X151696708Y-105476573D01*
X151554062Y-105820101D01*
X151553738Y-106192067D01*
X145023969Y-106192067D01*
X137924669Y-99092767D01*
X159669038Y-99092767D01*
X159811083Y-99436543D01*
X159895000Y-99520607D01*
X159895000Y-100745437D01*
X159862808Y-100777573D01*
X159720162Y-101121101D01*
X159719838Y-101493067D01*
X159861883Y-101836843D01*
X160124673Y-102100092D01*
X160468201Y-102242738D01*
X160840167Y-102243062D01*
X161183943Y-102101017D01*
X161447192Y-101838227D01*
X161589838Y-101494699D01*
X161590162Y-101122733D01*
X161448117Y-100778957D01*
X161415000Y-100745782D01*
X161415000Y-99393114D01*
X161539038Y-99094399D01*
X161539362Y-98722433D01*
X161397317Y-98378657D01*
X161134527Y-98115408D01*
X160790999Y-97972762D01*
X160419033Y-97972438D01*
X160075257Y-98114483D01*
X159812008Y-98377273D01*
X159669362Y-98720801D01*
X159669038Y-99092767D01*
X137924669Y-99092767D01*
X137196100Y-98364198D01*
X137196100Y-97755563D01*
X137228292Y-97723427D01*
X137370938Y-97379899D01*
X137371039Y-97262950D01*
X173755500Y-97262950D01*
X173755500Y-97528510D01*
X173852173Y-97761899D01*
X174030802Y-97940527D01*
X174264191Y-98037200D01*
X174529750Y-98037200D01*
X174688500Y-97878450D01*
X174688500Y-97104200D01*
X174942500Y-97104200D01*
X174942500Y-97878450D01*
X175101250Y-98037200D01*
X175366809Y-98037200D01*
X175600198Y-97940527D01*
X175778827Y-97761899D01*
X175875500Y-97528510D01*
X175875500Y-97262950D01*
X175716750Y-97104200D01*
X174942500Y-97104200D01*
X174688500Y-97104200D01*
X173914250Y-97104200D01*
X173755500Y-97262950D01*
X137371039Y-97262950D01*
X137371262Y-97007933D01*
X137229217Y-96664157D01*
X136966427Y-96400908D01*
X136622899Y-96258262D01*
X136250933Y-96257938D01*
X135907157Y-96399983D01*
X135643908Y-96662773D01*
X135501262Y-97006301D01*
X135500938Y-97378267D01*
X127472166Y-97378267D01*
X127341639Y-97291052D01*
X127050800Y-97233200D01*
X122304663Y-97233200D01*
X122272527Y-97201008D01*
X121928999Y-97058362D01*
X121557033Y-97058038D01*
X121213257Y-97200083D01*
X120950008Y-97462873D01*
X120807362Y-97806401D01*
X120807038Y-98178367D01*
X118766905Y-98178367D01*
X118783229Y-98131131D01*
X118634563Y-97957000D01*
X117809000Y-97957000D01*
X117555000Y-97957000D01*
X116729437Y-97957000D01*
X116580771Y-98131131D01*
X113232000Y-98131131D01*
X113232000Y-97131874D01*
X113612881Y-97131874D01*
X113814632Y-97542763D01*
X114155322Y-97830002D01*
X114580000Y-97965000D01*
X114855000Y-97965000D01*
X114855000Y-96957000D01*
X115109000Y-96957000D01*
X115109000Y-97965000D01*
X115384000Y-97965000D01*
X115808678Y-97830002D01*
X116149368Y-97542763D01*
X116156190Y-97528869D01*
X116580771Y-97528869D01*
X116729437Y-97703000D01*
X117555000Y-97703000D01*
X117555000Y-96737266D01*
X117809000Y-96737266D01*
X117809000Y-97703000D01*
X118634563Y-97703000D01*
X118783229Y-97528869D01*
X118641568Y-97118951D01*
X118353821Y-96794448D01*
X117979938Y-96610732D01*
X117809000Y-96737266D01*
X117555000Y-96737266D01*
X117384062Y-96610732D01*
X117010179Y-96794448D01*
X116722432Y-97118951D01*
X116580771Y-97528869D01*
X116156190Y-97528869D01*
X116351119Y-97131874D01*
X116224954Y-96957000D01*
X115109000Y-96957000D01*
X114855000Y-96957000D01*
X113739046Y-96957000D01*
X113612881Y-97131874D01*
X113232000Y-97131874D01*
X113232000Y-96528126D01*
X113612881Y-96528126D01*
X113739046Y-96703000D01*
X114855000Y-96703000D01*
X114855000Y-95695000D01*
X115109000Y-95695000D01*
X115109000Y-96703000D01*
X116224954Y-96703000D01*
X116351119Y-96528126D01*
X116149368Y-96117237D01*
X115983273Y-95977200D01*
X173734733Y-95977200D01*
X173801766Y-96314195D01*
X173755500Y-96425890D01*
X173755500Y-96691450D01*
X173914250Y-96850200D01*
X174229982Y-96850200D01*
X174389089Y-96956512D01*
X174794733Y-97037200D01*
X174836267Y-97037200D01*
X175241911Y-96956512D01*
X175401018Y-96850200D01*
X175716750Y-96850200D01*
X175875500Y-96691450D01*
X175875500Y-96425890D01*
X175829234Y-96314195D01*
X175896267Y-95977200D01*
X175815579Y-95571556D01*
X175585800Y-95227667D01*
X175241911Y-94997888D01*
X174836267Y-94917200D01*
X174794733Y-94917200D01*
X174389089Y-94997888D01*
X174045200Y-95227667D01*
X173815421Y-95571556D01*
X173734733Y-95977200D01*
X115983273Y-95977200D01*
X115808678Y-95829998D01*
X115384000Y-95695000D01*
X115109000Y-95695000D01*
X114855000Y-95695000D01*
X114580000Y-95695000D01*
X114155322Y-95829998D01*
X113814632Y-96117237D01*
X113612881Y-96528126D01*
X113232000Y-96528126D01*
X113232000Y-94800167D01*
X139526838Y-94800167D01*
X139668883Y-95143943D01*
X139931673Y-95407192D01*
X140275201Y-95549838D01*
X140647167Y-95550162D01*
X140990943Y-95408117D01*
X141024118Y-95375000D01*
X152472537Y-95375000D01*
X152504673Y-95407192D01*
X152848201Y-95549838D01*
X153220167Y-95550162D01*
X153563943Y-95408117D01*
X153827192Y-95145327D01*
X153969838Y-94801799D01*
X153970162Y-94429833D01*
X153828117Y-94086057D01*
X153565327Y-93822808D01*
X153221799Y-93680162D01*
X152849833Y-93679838D01*
X152506057Y-93821883D01*
X152472882Y-93855000D01*
X141024463Y-93855000D01*
X140992327Y-93822808D01*
X140648799Y-93680162D01*
X140276833Y-93679838D01*
X139933057Y-93821883D01*
X139669808Y-94084673D01*
X139527162Y-94428201D01*
X139526838Y-94800167D01*
X113232000Y-94800167D01*
X113232000Y-88340000D01*
X175947000Y-88340000D01*
X175947000Y-114225000D01*
X175947000Y-114225000D01*
G37*
X175947000Y-114225000D02*
X113232000Y-114225000D01*
X113232000Y-104131874D01*
X113612881Y-104131874D01*
X113814632Y-104542763D01*
X114155322Y-104830002D01*
X114580000Y-104965000D01*
X114855000Y-104965000D01*
X114855000Y-103957000D01*
X115109000Y-103957000D01*
X115109000Y-104965000D01*
X115384000Y-104965000D01*
X115808678Y-104830002D01*
X116149368Y-104542763D01*
X116351119Y-104131874D01*
X116224954Y-103957000D01*
X115109000Y-103957000D01*
X114855000Y-103957000D01*
X113739046Y-103957000D01*
X113612881Y-104131874D01*
X113232000Y-104131874D01*
X113232000Y-103528126D01*
X113612881Y-103528126D01*
X113739046Y-103703000D01*
X114855000Y-103703000D01*
X114855000Y-102695000D01*
X115109000Y-102695000D01*
X115109000Y-103703000D01*
X116224954Y-103703000D01*
X116351119Y-103528126D01*
X116156191Y-103131131D01*
X116580771Y-103131131D01*
X116722432Y-103541049D01*
X117010179Y-103865552D01*
X117384062Y-104049268D01*
X117555000Y-103922734D01*
X117555000Y-102957000D01*
X117809000Y-102957000D01*
X117809000Y-103922734D01*
X117979938Y-104049268D01*
X118353821Y-103865552D01*
X118641568Y-103541049D01*
X118783229Y-103131131D01*
X118634563Y-102957000D01*
X117809000Y-102957000D01*
X117555000Y-102957000D01*
X116729437Y-102957000D01*
X116580771Y-103131131D01*
X116156191Y-103131131D01*
X116149368Y-103117237D01*
X115808678Y-102829998D01*
X115384000Y-102695000D01*
X115109000Y-102695000D01*
X114855000Y-102695000D01*
X114580000Y-102695000D01*
X114155322Y-102829998D01*
X113814632Y-103117237D01*
X113612881Y-103528126D01*
X113232000Y-103528126D01*
X113232000Y-102528869D01*
X116580771Y-102528869D01*
X116729437Y-102703000D01*
X117555000Y-102703000D01*
X117555000Y-101737266D01*
X117809000Y-101737266D01*
X117809000Y-102703000D01*
X118634563Y-102703000D01*
X118783229Y-102528869D01*
X118641568Y-102118951D01*
X118353821Y-101794448D01*
X117979938Y-101610732D01*
X117809000Y-101737266D01*
X117555000Y-101737266D01*
X117384062Y-101610732D01*
X117010179Y-101794448D01*
X116722432Y-102118951D01*
X116580771Y-102528869D01*
X113232000Y-102528869D01*
X113232000Y-98131131D01*
X116580771Y-98131131D01*
X116722432Y-98541049D01*
X117010179Y-98865552D01*
X117384062Y-99049268D01*
X117555000Y-98922734D01*
X117555000Y-97957000D01*
X117809000Y-97957000D01*
X117809000Y-98922734D01*
X117979938Y-99049268D01*
X118353821Y-98865552D01*
X118641568Y-98541049D01*
X118766905Y-98178367D01*
X120807038Y-98178367D01*
X120949083Y-98522143D01*
X121211873Y-98785392D01*
X121555401Y-98928038D01*
X121927367Y-98928362D01*
X122271143Y-98786317D01*
X122304318Y-98753200D01*
X126735998Y-98753200D01*
X129265278Y-101282480D01*
X129265238Y-101327967D01*
X129407283Y-101671743D01*
X129670073Y-101934992D01*
X130013601Y-102077638D01*
X130385567Y-102077962D01*
X130729343Y-101935917D01*
X130992592Y-101673127D01*
X131135238Y-101329599D01*
X131135562Y-100957633D01*
X130993517Y-100613857D01*
X130730727Y-100350608D01*
X130387199Y-100207962D01*
X130340323Y-100207921D01*
X127588201Y-97455799D01*
X127472166Y-97378267D01*
X135500938Y-97378267D01*
X135642983Y-97722043D01*
X135676100Y-97755218D01*
X135676100Y-98679000D01*
X135733952Y-98969839D01*
X135898699Y-99216401D01*
X145118899Y-108436601D01*
X145365461Y-108601348D01*
X145656300Y-108659200D01*
X169947781Y-108659200D01*
X170005273Y-108716792D01*
X170348801Y-108859438D01*
X170720767Y-108859762D01*
X171064543Y-108717717D01*
X171327792Y-108454927D01*
X171470438Y-108111399D01*
X171470762Y-107739433D01*
X171328717Y-107395657D01*
X171065927Y-107132408D01*
X170722399Y-106989762D01*
X170350433Y-106989438D01*
X170006657Y-107131483D01*
X169998927Y-107139200D01*
X145971102Y-107139200D01*
X145023969Y-106192067D01*
X151553738Y-106192067D01*
X151695783Y-106535843D01*
X151958573Y-106799092D01*
X152302101Y-106941738D01*
X152674067Y-106942062D01*
X153017843Y-106800017D01*
X153281092Y-106537227D01*
X153423738Y-106193699D01*
X153423779Y-106146823D01*
X153950602Y-105620000D01*
X157804560Y-105620000D01*
X157804560Y-106470000D01*
X157848838Y-106705317D01*
X157987910Y-106921441D01*
X158200110Y-107066431D01*
X158452000Y-107117440D01*
X159302000Y-107117440D01*
X159537317Y-107073162D01*
X159555079Y-107061733D01*
X159877000Y-107125767D01*
X160282644Y-107045079D01*
X160626533Y-106815300D01*
X160856312Y-106471411D01*
X160937000Y-106065767D01*
X160937000Y-106024233D01*
X160856312Y-105618589D01*
X160626533Y-105274700D01*
X160282644Y-105044921D01*
X160111947Y-105010967D01*
X161142238Y-105010967D01*
X161284283Y-105354743D01*
X161547073Y-105617992D01*
X161890601Y-105760638D01*
X162262567Y-105760962D01*
X162606343Y-105618917D01*
X162703129Y-105522300D01*
X169900600Y-105522300D01*
X170191439Y-105464448D01*
X170438001Y-105299701D01*
X170535580Y-105202122D01*
X170581067Y-105202162D01*
X170924843Y-105060117D01*
X171188092Y-104797327D01*
X171330738Y-104453799D01*
X171331062Y-104081833D01*
X171189017Y-103738057D01*
X170926227Y-103474808D01*
X170582699Y-103332162D01*
X170210733Y-103331838D01*
X169866957Y-103473883D01*
X169603708Y-103736673D01*
X169493409Y-104002300D01*
X162532329Y-104002300D01*
X162264199Y-103890962D01*
X161892233Y-103890638D01*
X161548457Y-104032683D01*
X161285208Y-104295473D01*
X161142562Y-104639001D01*
X161142238Y-105010967D01*
X160111947Y-105010967D01*
X159877000Y-104964233D01*
X159559484Y-105027391D01*
X159553890Y-105023569D01*
X159302000Y-104972560D01*
X158452000Y-104972560D01*
X158216683Y-105016838D01*
X158000559Y-105155910D01*
X157855569Y-105368110D01*
X157804560Y-105620000D01*
X153950602Y-105620000D01*
X155432602Y-104138000D01*
X159317837Y-104138000D01*
X159349973Y-104170192D01*
X159693501Y-104312838D01*
X160065467Y-104313162D01*
X160409243Y-104171117D01*
X160672492Y-103908327D01*
X160815138Y-103564799D01*
X160815462Y-103192833D01*
X160673417Y-102849057D01*
X160410627Y-102585808D01*
X160067099Y-102443162D01*
X159695133Y-102442838D01*
X159351357Y-102584883D01*
X159318182Y-102618000D01*
X155117800Y-102618000D01*
X154826961Y-102675852D01*
X154580399Y-102840599D01*
X152349220Y-105071778D01*
X152303733Y-105071738D01*
X151959957Y-105213783D01*
X151696708Y-105476573D01*
X151554062Y-105820101D01*
X151553738Y-106192067D01*
X145023969Y-106192067D01*
X137924669Y-99092767D01*
X159669038Y-99092767D01*
X159811083Y-99436543D01*
X159895000Y-99520607D01*
X159895000Y-100745437D01*
X159862808Y-100777573D01*
X159720162Y-101121101D01*
X159719838Y-101493067D01*
X159861883Y-101836843D01*
X160124673Y-102100092D01*
X160468201Y-102242738D01*
X160840167Y-102243062D01*
X161183943Y-102101017D01*
X161447192Y-101838227D01*
X161589838Y-101494699D01*
X161590162Y-101122733D01*
X161448117Y-100778957D01*
X161415000Y-100745782D01*
X161415000Y-99393114D01*
X161539038Y-99094399D01*
X161539362Y-98722433D01*
X161397317Y-98378657D01*
X161134527Y-98115408D01*
X160790999Y-97972762D01*
X160419033Y-97972438D01*
X160075257Y-98114483D01*
X159812008Y-98377273D01*
X159669362Y-98720801D01*
X159669038Y-99092767D01*
X137924669Y-99092767D01*
X137196100Y-98364198D01*
X137196100Y-97755563D01*
X137228292Y-97723427D01*
X137370938Y-97379899D01*
X137371039Y-97262950D01*
X173755500Y-97262950D01*
X173755500Y-97528510D01*
X173852173Y-97761899D01*
X174030802Y-97940527D01*
X174264191Y-98037200D01*
X174529750Y-98037200D01*
X174688500Y-97878450D01*
X174688500Y-97104200D01*
X174942500Y-97104200D01*
X174942500Y-97878450D01*
X175101250Y-98037200D01*
X175366809Y-98037200D01*
X175600198Y-97940527D01*
X175778827Y-97761899D01*
X175875500Y-97528510D01*
X175875500Y-97262950D01*
X175716750Y-97104200D01*
X174942500Y-97104200D01*
X174688500Y-97104200D01*
X173914250Y-97104200D01*
X173755500Y-97262950D01*
X137371039Y-97262950D01*
X137371262Y-97007933D01*
X137229217Y-96664157D01*
X136966427Y-96400908D01*
X136622899Y-96258262D01*
X136250933Y-96257938D01*
X135907157Y-96399983D01*
X135643908Y-96662773D01*
X135501262Y-97006301D01*
X135500938Y-97378267D01*
X127472166Y-97378267D01*
X127341639Y-97291052D01*
X127050800Y-97233200D01*
X122304663Y-97233200D01*
X122272527Y-97201008D01*
X121928999Y-97058362D01*
X121557033Y-97058038D01*
X121213257Y-97200083D01*
X120950008Y-97462873D01*
X120807362Y-97806401D01*
X120807038Y-98178367D01*
X118766905Y-98178367D01*
X118783229Y-98131131D01*
X118634563Y-97957000D01*
X117809000Y-97957000D01*
X117555000Y-97957000D01*
X116729437Y-97957000D01*
X116580771Y-98131131D01*
X113232000Y-98131131D01*
X113232000Y-97131874D01*
X113612881Y-97131874D01*
X113814632Y-97542763D01*
X114155322Y-97830002D01*
X114580000Y-97965000D01*
X114855000Y-97965000D01*
X114855000Y-96957000D01*
X115109000Y-96957000D01*
X115109000Y-97965000D01*
X115384000Y-97965000D01*
X115808678Y-97830002D01*
X116149368Y-97542763D01*
X116156190Y-97528869D01*
X116580771Y-97528869D01*
X116729437Y-97703000D01*
X117555000Y-97703000D01*
X117555000Y-96737266D01*
X117809000Y-96737266D01*
X117809000Y-97703000D01*
X118634563Y-97703000D01*
X118783229Y-97528869D01*
X118641568Y-97118951D01*
X118353821Y-96794448D01*
X117979938Y-96610732D01*
X117809000Y-96737266D01*
X117555000Y-96737266D01*
X117384062Y-96610732D01*
X117010179Y-96794448D01*
X116722432Y-97118951D01*
X116580771Y-97528869D01*
X116156190Y-97528869D01*
X116351119Y-97131874D01*
X116224954Y-96957000D01*
X115109000Y-96957000D01*
X114855000Y-96957000D01*
X113739046Y-96957000D01*
X113612881Y-97131874D01*
X113232000Y-97131874D01*
X113232000Y-96528126D01*
X113612881Y-96528126D01*
X113739046Y-96703000D01*
X114855000Y-96703000D01*
X114855000Y-95695000D01*
X115109000Y-95695000D01*
X115109000Y-96703000D01*
X116224954Y-96703000D01*
X116351119Y-96528126D01*
X116149368Y-96117237D01*
X115983273Y-95977200D01*
X173734733Y-95977200D01*
X173801766Y-96314195D01*
X173755500Y-96425890D01*
X173755500Y-96691450D01*
X173914250Y-96850200D01*
X174229982Y-96850200D01*
X174389089Y-96956512D01*
X174794733Y-97037200D01*
X174836267Y-97037200D01*
X175241911Y-96956512D01*
X175401018Y-96850200D01*
X175716750Y-96850200D01*
X175875500Y-96691450D01*
X175875500Y-96425890D01*
X175829234Y-96314195D01*
X175896267Y-95977200D01*
X175815579Y-95571556D01*
X175585800Y-95227667D01*
X175241911Y-94997888D01*
X174836267Y-94917200D01*
X174794733Y-94917200D01*
X174389089Y-94997888D01*
X174045200Y-95227667D01*
X173815421Y-95571556D01*
X173734733Y-95977200D01*
X115983273Y-95977200D01*
X115808678Y-95829998D01*
X115384000Y-95695000D01*
X115109000Y-95695000D01*
X114855000Y-95695000D01*
X114580000Y-95695000D01*
X114155322Y-95829998D01*
X113814632Y-96117237D01*
X113612881Y-96528126D01*
X113232000Y-96528126D01*
X113232000Y-94800167D01*
X139526838Y-94800167D01*
X139668883Y-95143943D01*
X139931673Y-95407192D01*
X140275201Y-95549838D01*
X140647167Y-95550162D01*
X140990943Y-95408117D01*
X141024118Y-95375000D01*
X152472537Y-95375000D01*
X152504673Y-95407192D01*
X152848201Y-95549838D01*
X153220167Y-95550162D01*
X153563943Y-95408117D01*
X153827192Y-95145327D01*
X153969838Y-94801799D01*
X153970162Y-94429833D01*
X153828117Y-94086057D01*
X153565327Y-93822808D01*
X153221799Y-93680162D01*
X152849833Y-93679838D01*
X152506057Y-93821883D01*
X152472882Y-93855000D01*
X141024463Y-93855000D01*
X140992327Y-93822808D01*
X140648799Y-93680162D01*
X140276833Y-93679838D01*
X139933057Y-93821883D01*
X139669808Y-94084673D01*
X139527162Y-94428201D01*
X139526838Y-94800167D01*
X113232000Y-94800167D01*
X113232000Y-88340000D01*
X175947000Y-88340000D01*
X175947000Y-114225000D01*
M02*
