G04 #@! TF.FileFunction,Copper,L1,Top,Signal*
%FSLAX46Y46*%
G04 Gerber Fmt 4.6, Leading zero omitted, Abs format (unit mm)*
G04 Created by KiCad (PCBNEW 4.0.6) date 03/11/18 17:34:20*
%MOMM*%
%LPD*%
G01*
G04 APERTURE LIST*
%ADD10C,0.100000*%
%ADD11R,1.550000X0.600000*%
%ADD12R,1.000000X0.700000*%
%ADD13R,0.600000X0.700000*%
%ADD14R,0.800000X0.900000*%
%ADD15R,0.800000X0.750000*%
%ADD16R,0.750000X0.800000*%
%ADD17R,1.600000X3.500000*%
%ADD18R,0.800000X0.800000*%
%ADD19R,0.600000X0.800000*%
%ADD20R,1.350000X0.400000*%
%ADD21O,0.950000X1.250000*%
%ADD22O,1.550000X1.000000*%
%ADD23R,0.850000X0.850000*%
%ADD24O,0.850000X0.850000*%
%ADD25R,0.900000X0.500000*%
%ADD26R,0.500000X0.900000*%
%ADD27R,1.500000X0.550000*%
%ADD28R,0.550000X1.500000*%
%ADD29R,1.000000X1.500000*%
%ADD30R,2.000000X3.000000*%
%ADD31R,4.500000X2.000000*%
%ADD32C,0.600000*%
%ADD33C,0.250000*%
%ADD34C,0.254000*%
G04 APERTURE END LIST*
D10*
D11*
X166972000Y-104140000D03*
X166972000Y-105410000D03*
X166972000Y-106680000D03*
X166972000Y-107950000D03*
X172372000Y-107950000D03*
X172372000Y-106680000D03*
X172372000Y-105410000D03*
X172372000Y-104140000D03*
D12*
X121932000Y-101330000D03*
D13*
X123632000Y-101330000D03*
X123632000Y-99330000D03*
X121732000Y-99330000D03*
D14*
X154117000Y-103235000D03*
X156017000Y-103235000D03*
X155067000Y-101235000D03*
X154117000Y-110855000D03*
X156017000Y-110855000D03*
X155067000Y-108855000D03*
X161737000Y-103235000D03*
X163637000Y-103235000D03*
X162687000Y-101235000D03*
X161737000Y-110855000D03*
X163637000Y-110855000D03*
X162687000Y-108855000D03*
D15*
X142659800Y-108737400D03*
X141159800Y-108737400D03*
X136371900Y-108699300D03*
X137871900Y-108699300D03*
X131584000Y-109232700D03*
X133084000Y-109232700D03*
D16*
X126606300Y-100456300D03*
X126606300Y-101956300D03*
D15*
X125107000Y-97155000D03*
X126607000Y-97155000D03*
X133071300Y-107962700D03*
X131571300Y-107962700D03*
D16*
X141706600Y-105093200D03*
X141706600Y-103593200D03*
D15*
X137172000Y-92710000D03*
X138672000Y-92710000D03*
X131052000Y-92710000D03*
X129552000Y-92710000D03*
D17*
X166497000Y-91915000D03*
X166497000Y-97315000D03*
D16*
X157607000Y-96405000D03*
X157607000Y-97905000D03*
D15*
X154952000Y-96520000D03*
X156452000Y-96520000D03*
X154952000Y-97790000D03*
X156452000Y-97790000D03*
D18*
X162217000Y-93345000D03*
X160617000Y-93345000D03*
X144272000Y-105880000D03*
X144272000Y-107480000D03*
X146177000Y-105880000D03*
X146177000Y-107480000D03*
D19*
X160567000Y-95250000D03*
X162267000Y-95250000D03*
D20*
X117682000Y-99030000D03*
X117682000Y-99680000D03*
X117682000Y-100330000D03*
X117682000Y-100980000D03*
X117682000Y-101630000D03*
D21*
X117682000Y-97830000D03*
X117682000Y-102830000D03*
D22*
X114982000Y-96830000D03*
X114982000Y-103830000D03*
D23*
X174815500Y-96977200D03*
D24*
X174815500Y-95977200D03*
D23*
X158877000Y-106045000D03*
D24*
X159877000Y-106045000D03*
D25*
X129971800Y-107847700D03*
X129971800Y-109347700D03*
D26*
X150737000Y-104775000D03*
X149237000Y-104775000D03*
X150737000Y-106045000D03*
X149237000Y-106045000D03*
X150737000Y-109855000D03*
X149237000Y-109855000D03*
X150737000Y-111125000D03*
X149237000Y-111125000D03*
D25*
X144272000Y-104255000D03*
X144272000Y-102755000D03*
X146177000Y-104255000D03*
X146177000Y-102755000D03*
D26*
X162167000Y-92075000D03*
X160667000Y-92075000D03*
X163437000Y-106045000D03*
X161937000Y-106045000D03*
D27*
X128412000Y-96330000D03*
X128412000Y-97130000D03*
X128412000Y-97930000D03*
X128412000Y-98730000D03*
X128412000Y-99530000D03*
X128412000Y-100330000D03*
X128412000Y-101130000D03*
X128412000Y-101930000D03*
X128412000Y-102730000D03*
X128412000Y-103530000D03*
X128412000Y-104330000D03*
D28*
X130112000Y-106030000D03*
X130912000Y-106030000D03*
X131712000Y-106030000D03*
X132512000Y-106030000D03*
X133312000Y-106030000D03*
X134112000Y-106030000D03*
X134912000Y-106030000D03*
X135712000Y-106030000D03*
X136512000Y-106030000D03*
X137312000Y-106030000D03*
X138112000Y-106030000D03*
D27*
X139812000Y-104330000D03*
X139812000Y-103530000D03*
X139812000Y-102730000D03*
X139812000Y-101930000D03*
X139812000Y-101130000D03*
X139812000Y-100330000D03*
X139812000Y-99530000D03*
X139812000Y-98730000D03*
X139812000Y-97930000D03*
X139812000Y-97130000D03*
X139812000Y-96330000D03*
D28*
X138112000Y-94630000D03*
X137312000Y-94630000D03*
X136512000Y-94630000D03*
X135712000Y-94630000D03*
X134912000Y-94630000D03*
X134112000Y-94630000D03*
X133312000Y-94630000D03*
X132512000Y-94630000D03*
X131712000Y-94630000D03*
X130912000Y-94630000D03*
X130112000Y-94630000D03*
D29*
X154837000Y-94825000D03*
X156337000Y-94825000D03*
X157837000Y-94825000D03*
D30*
X156337000Y-91865000D03*
D10*
G36*
X157337000Y-93340000D02*
X156837000Y-94090000D01*
X155837000Y-94090000D01*
X155337000Y-93340000D01*
X157337000Y-93340000D01*
X157337000Y-93340000D01*
G37*
D31*
X144889800Y-112014000D03*
X136389800Y-112014000D03*
D32*
X121742200Y-97993200D03*
X130200400Y-101142800D03*
X160655000Y-101307900D03*
X160604200Y-98907600D03*
X152488900Y-106006900D03*
X159880300Y-103378000D03*
X153035000Y-94615000D03*
X140462000Y-94615000D03*
X170395900Y-104267000D03*
X162077400Y-104825800D03*
X136436100Y-97193100D03*
X170535600Y-107924600D03*
D33*
X117682000Y-100980000D02*
X117682000Y-101630000D01*
X139812000Y-104330000D02*
X133096500Y-104330000D01*
X133096500Y-104330000D02*
X132512000Y-104914500D01*
X161480500Y-109728000D02*
X163385500Y-109728000D01*
X163385500Y-109728000D02*
X163576000Y-109918500D01*
X132512000Y-106030000D02*
X132512000Y-107403400D01*
X132512000Y-107403400D02*
X133071300Y-107962700D01*
X132512000Y-106030000D02*
X132512000Y-104914500D01*
X132512000Y-104914500D02*
X132651500Y-104775000D01*
X129984500Y-99530000D02*
X130912000Y-99530000D01*
X130873500Y-99568000D02*
X130912000Y-99568000D01*
X130874000Y-99568000D02*
X130873500Y-99568000D01*
X130912000Y-99530000D02*
X130874000Y-99568000D01*
X130912000Y-98869500D02*
X130912000Y-99568000D01*
X130912000Y-99568000D02*
X130912000Y-103466500D01*
X130912000Y-103466500D02*
X128714500Y-105664000D01*
X130912000Y-94630000D02*
X130912000Y-98869500D01*
X129984500Y-99530000D02*
X128412000Y-99530000D01*
X137172000Y-92710000D02*
X137172000Y-94490000D01*
X137172000Y-94490000D02*
X137312000Y-94630000D01*
X130912000Y-94630000D02*
X130912000Y-92850000D01*
X130912000Y-92850000D02*
X131052000Y-92710000D01*
X166972000Y-105410000D02*
X166972000Y-106680000D01*
X174815500Y-96977200D02*
X166834800Y-96977200D01*
X166834800Y-96977200D02*
X166497000Y-97315000D01*
X123632000Y-101330000D02*
X124514100Y-101330000D01*
X127114100Y-98730000D02*
X128412000Y-98730000D01*
X124514100Y-101330000D02*
X127114100Y-98730000D01*
X117682000Y-100330000D02*
X119392700Y-100330000D01*
X122822500Y-100520500D02*
X123632000Y-101330000D01*
X119583200Y-100520500D02*
X122822500Y-100520500D01*
X119392700Y-100330000D02*
X119583200Y-100520500D01*
X123632000Y-99330000D02*
X125536200Y-99330000D01*
X126936200Y-97930000D02*
X128412000Y-97930000D01*
X125536200Y-99330000D02*
X126936200Y-97930000D01*
X117682000Y-99680000D02*
X119441200Y-99680000D01*
X122898700Y-100063300D02*
X123632000Y-99330000D01*
X119824500Y-100063300D02*
X122898700Y-100063300D01*
X119441200Y-99680000D02*
X119824500Y-100063300D01*
X128412000Y-101130000D02*
X130187600Y-101130000D01*
X121732000Y-98003400D02*
X121732000Y-99330000D01*
X121742200Y-97993200D02*
X121732000Y-98003400D01*
X130187600Y-101130000D02*
X130200400Y-101142800D01*
X117682000Y-99030000D02*
X119578600Y-99030000D01*
X119878600Y-99330000D02*
X121732000Y-99330000D01*
X119578600Y-99030000D02*
X119878600Y-99330000D01*
X150737000Y-104775000D02*
X152577000Y-104775000D01*
X152577000Y-104775000D02*
X154117000Y-103235000D01*
X155067000Y-108855000D02*
X156067000Y-108855000D01*
X156067000Y-108855000D02*
X158877000Y-106045000D01*
X156017000Y-103235000D02*
X156067000Y-103235000D01*
X156067000Y-103235000D02*
X158877000Y-106045000D01*
X160567000Y-95250000D02*
X160567000Y-98870400D01*
X160567000Y-98870400D02*
X160604200Y-98907600D01*
X160655000Y-101307900D02*
X160655000Y-101235000D01*
X160655000Y-101235000D02*
X160655000Y-101307900D01*
X160655000Y-101307900D02*
X160655000Y-101235000D01*
X162687000Y-101235000D02*
X160655000Y-101235000D01*
X160655000Y-101235000D02*
X155067000Y-101235000D01*
X157607000Y-96405000D02*
X157607000Y-95055000D01*
X157607000Y-95055000D02*
X157837000Y-94825000D01*
X157837000Y-94825000D02*
X157837000Y-92594300D01*
X164152600Y-91915000D02*
X166497000Y-91915000D01*
X162966400Y-90728800D02*
X164152600Y-91915000D01*
X159702500Y-90728800D02*
X162966400Y-90728800D01*
X157837000Y-92594300D02*
X159702500Y-90728800D01*
X157837000Y-94825000D02*
X160142000Y-94825000D01*
X160142000Y-94825000D02*
X160567000Y-95250000D01*
X150737000Y-109855000D02*
X153117000Y-109855000D01*
X153117000Y-109855000D02*
X154117000Y-110855000D01*
X159880300Y-103378000D02*
X161594000Y-103378000D01*
X161594000Y-103378000D02*
X161737000Y-103235000D01*
X150737000Y-106045000D02*
X152450800Y-106045000D01*
X152450800Y-106045000D02*
X152488900Y-106006900D01*
X166972000Y-104140000D02*
X164542000Y-104140000D01*
X164542000Y-104140000D02*
X163637000Y-103235000D01*
X162687000Y-108855000D02*
X162687000Y-108750100D01*
X162687000Y-108750100D02*
X163437000Y-108000100D01*
X163437000Y-108000100D02*
X163437000Y-106045000D01*
X163437000Y-106045000D02*
X163437000Y-103435000D01*
X163437000Y-103435000D02*
X163637000Y-103235000D01*
X161737000Y-110855000D02*
X161737000Y-110970100D01*
X161737000Y-110970100D02*
X160680400Y-112026700D01*
X160680400Y-112026700D02*
X151638700Y-112026700D01*
X151638700Y-112026700D02*
X150737000Y-111125000D01*
X134112000Y-106030000D02*
X134112000Y-106794300D01*
X141542200Y-107619800D02*
X142659800Y-108737400D01*
X134937500Y-107619800D02*
X141542200Y-107619800D01*
X134112000Y-106794300D02*
X134937500Y-107619800D01*
X142659800Y-108737400D02*
X143751300Y-108737400D01*
X144889800Y-109875900D02*
X144889800Y-112014000D01*
X143751300Y-108737400D02*
X144889800Y-109875900D01*
X145060100Y-112184300D02*
X144889800Y-112014000D01*
X133312000Y-106030000D02*
X133312000Y-106896000D01*
X135115300Y-108699300D02*
X136371900Y-108699300D01*
X133312000Y-106896000D02*
X135115300Y-108699300D01*
X136371900Y-108699300D02*
X136371900Y-108685900D01*
X136389800Y-112014000D02*
X136389800Y-108717200D01*
X136389800Y-108717200D02*
X136371900Y-108699300D01*
X136384600Y-112019200D02*
X136389800Y-112014000D01*
X130912000Y-106030000D02*
X130912000Y-106908200D01*
X129147000Y-109347700D02*
X129971800Y-109347700D01*
X128879600Y-109080300D02*
X129147000Y-109347700D01*
X128879600Y-107467400D02*
X128879600Y-109080300D01*
X129184400Y-107162600D02*
X128879600Y-107467400D01*
X130657600Y-107162600D02*
X129184400Y-107162600D01*
X130912000Y-106908200D02*
X130657600Y-107162600D01*
X131761800Y-109232700D02*
X130086800Y-109232700D01*
X130086800Y-109232700D02*
X129971800Y-109347700D01*
X126606300Y-100456300D02*
X128285700Y-100456300D01*
X128285700Y-100456300D02*
X128412000Y-100330000D01*
X154952000Y-97790000D02*
X154952000Y-96520000D01*
X153035000Y-94615000D02*
X154627000Y-94615000D01*
X154627000Y-94615000D02*
X154837000Y-94825000D01*
X138112000Y-94630000D02*
X140447000Y-94630000D01*
X140447000Y-94630000D02*
X140462000Y-94615000D01*
X138307000Y-94825000D02*
X138112000Y-94630000D01*
X129552000Y-92710000D02*
X129552000Y-91999500D01*
X138672000Y-92101100D02*
X138672000Y-92710000D01*
X138252200Y-91681300D02*
X138672000Y-92101100D01*
X129870200Y-91681300D02*
X138252200Y-91681300D01*
X129552000Y-91999500D02*
X129870200Y-91681300D01*
X138112000Y-94630000D02*
X138112000Y-103453700D01*
X138112000Y-103453700D02*
X138188300Y-103530000D01*
X130112000Y-94630000D02*
X130112000Y-96798900D01*
X129780900Y-97130000D02*
X128412000Y-97130000D01*
X130112000Y-96798900D02*
X129780900Y-97130000D01*
X131712000Y-106030000D02*
X131712000Y-104584200D01*
X131712000Y-104584200D02*
X132766200Y-103530000D01*
X132766200Y-103530000D02*
X138188300Y-103530000D01*
X138188300Y-103530000D02*
X139812000Y-103530000D01*
X128412000Y-97130000D02*
X126632000Y-97130000D01*
X126632000Y-97130000D02*
X126607000Y-97155000D01*
X172372000Y-105410000D02*
X170294300Y-105410000D01*
X154952000Y-99097400D02*
X154952000Y-97790000D01*
X155829000Y-99974400D02*
X154952000Y-99097400D01*
X166878000Y-99974400D02*
X155829000Y-99974400D01*
X168668700Y-101765100D02*
X166878000Y-99974400D01*
X168668700Y-103784400D02*
X168668700Y-101765100D01*
X170294300Y-105410000D02*
X168668700Y-103784400D01*
X172372000Y-105410000D02*
X172372000Y-106680000D01*
X154952000Y-97790000D02*
X154952000Y-94940000D01*
X154952000Y-94940000D02*
X154837000Y-94825000D01*
X141706600Y-103593200D02*
X139875200Y-103593200D01*
X139875200Y-103593200D02*
X139812000Y-103530000D01*
X141732000Y-103390000D02*
X141706600Y-103606600D01*
X131761800Y-107962700D02*
X131761800Y-106079800D01*
X131761800Y-106079800D02*
X131712000Y-106030000D01*
X131761800Y-107962700D02*
X130086800Y-107962700D01*
X130086800Y-107962700D02*
X129971800Y-107847700D01*
X138112000Y-94630000D02*
X138112000Y-94171000D01*
X138112000Y-94171000D02*
X138672000Y-93611000D01*
X138672000Y-93611000D02*
X138672000Y-92710000D01*
X130112000Y-94630000D02*
X130112000Y-94145600D01*
X130112000Y-94145600D02*
X129552000Y-93585600D01*
X129552000Y-93585600D02*
X129552000Y-92710000D01*
X162267000Y-95250000D02*
X162788600Y-95250000D01*
X162788600Y-95250000D02*
X163525200Y-94513400D01*
X174815500Y-95977200D02*
X174704500Y-95977200D01*
X174704500Y-95977200D02*
X173240700Y-94513400D01*
X173240700Y-94513400D02*
X163525200Y-94513400D01*
X163525200Y-94513400D02*
X163385400Y-94513400D01*
X163385400Y-94513400D02*
X162217000Y-93345000D01*
X160617000Y-93345000D02*
X160617000Y-92125000D01*
X160617000Y-92125000D02*
X160667000Y-92075000D01*
X144272000Y-105880000D02*
X144272000Y-104255000D01*
X146177000Y-105880000D02*
X146177000Y-104255000D01*
X170522900Y-104140000D02*
X172372000Y-104140000D01*
X170395900Y-104267000D02*
X170522900Y-104140000D01*
X161937000Y-104966200D02*
X162077400Y-104825800D01*
X161937000Y-106045000D02*
X161937000Y-104966200D01*
X159877000Y-106045000D02*
X161937000Y-106045000D01*
X139812000Y-97930000D02*
X144996200Y-97930000D01*
X149237000Y-102170800D02*
X149237000Y-104775000D01*
X144996200Y-97930000D02*
X149237000Y-102170800D01*
X149237000Y-106045000D02*
X148602700Y-106045000D01*
X145110400Y-98730000D02*
X139812000Y-98730000D01*
X148361400Y-101981000D02*
X145110400Y-98730000D01*
X148361400Y-105803700D02*
X148361400Y-101981000D01*
X148602700Y-106045000D02*
X148361400Y-105803700D01*
X149237000Y-109855000D02*
X148399500Y-109855000D01*
X145173800Y-99530000D02*
X139812000Y-99530000D01*
X147866100Y-102222300D02*
X145173800Y-99530000D01*
X147866100Y-109321600D02*
X147866100Y-102222300D01*
X148399500Y-109855000D02*
X147866100Y-109321600D01*
X139812000Y-100330000D02*
X145275300Y-100330000D01*
X147993100Y-111125000D02*
X149237000Y-111125000D01*
X147307300Y-110439200D02*
X147993100Y-111125000D01*
X147307300Y-102362000D02*
X147307300Y-110439200D01*
X145275300Y-100330000D02*
X147307300Y-102362000D01*
X144272000Y-102755000D02*
X139837000Y-102755000D01*
X139837000Y-102755000D02*
X139812000Y-102730000D01*
X139989500Y-102552500D02*
X139812000Y-102730000D01*
X139812000Y-101930000D02*
X145352000Y-101930000D01*
X145352000Y-101930000D02*
X146177000Y-102755000D01*
X172372000Y-107950000D02*
X170561000Y-107950000D01*
X136512000Y-97117200D02*
X136512000Y-94630000D01*
X136436100Y-97193100D02*
X136512000Y-97117200D01*
X170561000Y-107950000D02*
X170535600Y-107924600D01*
D34*
G36*
X175947000Y-114225000D02*
X113232000Y-114225000D01*
X113232000Y-104131874D01*
X113612881Y-104131874D01*
X113814632Y-104542763D01*
X114155322Y-104830002D01*
X114580000Y-104965000D01*
X114855000Y-104965000D01*
X114855000Y-103957000D01*
X115109000Y-103957000D01*
X115109000Y-104965000D01*
X115384000Y-104965000D01*
X115808678Y-104830002D01*
X116149368Y-104542763D01*
X116351119Y-104131874D01*
X116224954Y-103957000D01*
X115109000Y-103957000D01*
X114855000Y-103957000D01*
X113739046Y-103957000D01*
X113612881Y-104131874D01*
X113232000Y-104131874D01*
X113232000Y-103528126D01*
X113612881Y-103528126D01*
X113739046Y-103703000D01*
X114855000Y-103703000D01*
X114855000Y-102695000D01*
X115109000Y-102695000D01*
X115109000Y-103703000D01*
X116224954Y-103703000D01*
X116351119Y-103528126D01*
X116156191Y-103131131D01*
X116580771Y-103131131D01*
X116722432Y-103541049D01*
X117010179Y-103865552D01*
X117384062Y-104049268D01*
X117555000Y-103922734D01*
X117555000Y-102957000D01*
X117809000Y-102957000D01*
X117809000Y-103922734D01*
X117979938Y-104049268D01*
X118353821Y-103865552D01*
X118641568Y-103541049D01*
X118783229Y-103131131D01*
X118634563Y-102957000D01*
X117809000Y-102957000D01*
X117555000Y-102957000D01*
X116729437Y-102957000D01*
X116580771Y-103131131D01*
X116156191Y-103131131D01*
X116149368Y-103117237D01*
X115808678Y-102829998D01*
X115384000Y-102695000D01*
X115109000Y-102695000D01*
X114855000Y-102695000D01*
X114580000Y-102695000D01*
X114155322Y-102829998D01*
X113814632Y-103117237D01*
X113612881Y-103528126D01*
X113232000Y-103528126D01*
X113232000Y-98830000D01*
X116359560Y-98830000D01*
X116359560Y-99230000D01*
X116383944Y-99359589D01*
X116359560Y-99480000D01*
X116359560Y-99880000D01*
X116383944Y-100009589D01*
X116359560Y-100130000D01*
X116359560Y-100530000D01*
X116379450Y-100635705D01*
X116372000Y-100653690D01*
X116372000Y-100721250D01*
X116401004Y-100750254D01*
X116403838Y-100765317D01*
X116542910Y-100981441D01*
X116551598Y-100987377D01*
X116468673Y-101070301D01*
X116417920Y-101192830D01*
X116372000Y-101238750D01*
X116372000Y-101371250D01*
X116417920Y-101417170D01*
X116468673Y-101539699D01*
X116647302Y-101718327D01*
X116675483Y-101730000D01*
X116530750Y-101730000D01*
X116372000Y-101888750D01*
X116372000Y-101956310D01*
X116468673Y-102189699D01*
X116639090Y-102360115D01*
X116580771Y-102528869D01*
X116729437Y-102703000D01*
X117555000Y-102703000D01*
X117555000Y-101730000D01*
X117545184Y-101730000D01*
X117508445Y-101702805D01*
X117555000Y-101656250D01*
X117555000Y-101483000D01*
X117809000Y-101483000D01*
X117809000Y-101656250D01*
X117855555Y-101702805D01*
X117818816Y-101730000D01*
X117809000Y-101730000D01*
X117809000Y-102703000D01*
X118634563Y-102703000D01*
X118783229Y-102528869D01*
X118724910Y-102360115D01*
X118895327Y-102189699D01*
X118992000Y-101956310D01*
X118992000Y-101888750D01*
X118833250Y-101730000D01*
X118688517Y-101730000D01*
X118716698Y-101718327D01*
X118819275Y-101615750D01*
X120797000Y-101615750D01*
X120797000Y-101806310D01*
X120893673Y-102039699D01*
X121072302Y-102218327D01*
X121305691Y-102315000D01*
X121646250Y-102315000D01*
X121805000Y-102156250D01*
X121805000Y-101457000D01*
X120955750Y-101457000D01*
X120797000Y-101615750D01*
X118819275Y-101615750D01*
X118895327Y-101539699D01*
X118946080Y-101417170D01*
X118992000Y-101371250D01*
X118992000Y-101238750D01*
X118946080Y-101192830D01*
X118910529Y-101107002D01*
X118992000Y-101107002D01*
X118992000Y-101090000D01*
X119093839Y-101090000D01*
X119292361Y-101222648D01*
X119583200Y-101280500D01*
X122079000Y-101280500D01*
X122079000Y-101457000D01*
X122059000Y-101457000D01*
X122059000Y-102156250D01*
X122217750Y-102315000D01*
X122558309Y-102315000D01*
X122791698Y-102218327D01*
X122874252Y-102135774D01*
X123080110Y-102276431D01*
X123332000Y-102327440D01*
X123932000Y-102327440D01*
X124167317Y-102283162D01*
X124231206Y-102242050D01*
X125596300Y-102242050D01*
X125596300Y-102482609D01*
X125692973Y-102715998D01*
X125871601Y-102894627D01*
X126104990Y-102991300D01*
X126320550Y-102991300D01*
X126479300Y-102832550D01*
X126479300Y-102083300D01*
X125755050Y-102083300D01*
X125596300Y-102242050D01*
X124231206Y-102242050D01*
X124383441Y-102144090D01*
X124420399Y-102090000D01*
X124514100Y-102090000D01*
X124804939Y-102032148D01*
X125051501Y-101867401D01*
X125672236Y-101246666D01*
X125596300Y-101429991D01*
X125596300Y-101670550D01*
X125755050Y-101829300D01*
X126479300Y-101829300D01*
X126479300Y-101809300D01*
X126733300Y-101809300D01*
X126733300Y-101829300D01*
X126753300Y-101829300D01*
X126753300Y-102083300D01*
X126733300Y-102083300D01*
X126733300Y-102832550D01*
X126892050Y-102991300D01*
X127014560Y-102991300D01*
X127014560Y-103005000D01*
X127038944Y-103134589D01*
X127014560Y-103255000D01*
X127014560Y-103805000D01*
X127038944Y-103934589D01*
X127014560Y-104055000D01*
X127014560Y-104605000D01*
X127058838Y-104840317D01*
X127197910Y-105056441D01*
X127410110Y-105201431D01*
X127662000Y-105252440D01*
X129162000Y-105252440D01*
X129196454Y-105245957D01*
X129189560Y-105280000D01*
X129189560Y-106402600D01*
X129184400Y-106402600D01*
X128893560Y-106460452D01*
X128646999Y-106625199D01*
X128342199Y-106929999D01*
X128177452Y-107176561D01*
X128119600Y-107467400D01*
X128119600Y-109080300D01*
X128177452Y-109371139D01*
X128342199Y-109617701D01*
X128609599Y-109885101D01*
X128856161Y-110049848D01*
X129141941Y-110106694D01*
X129269910Y-110194131D01*
X129521800Y-110245140D01*
X130421800Y-110245140D01*
X130657117Y-110200862D01*
X130796273Y-110111318D01*
X130932110Y-110204131D01*
X131184000Y-110255140D01*
X131984000Y-110255140D01*
X132219317Y-110210862D01*
X132322646Y-110144371D01*
X132324302Y-110146027D01*
X132557691Y-110242700D01*
X132798250Y-110242700D01*
X132957000Y-110083950D01*
X132957000Y-109359700D01*
X133211000Y-109359700D01*
X133211000Y-110083950D01*
X133369750Y-110242700D01*
X133610309Y-110242700D01*
X133843698Y-110146027D01*
X134022327Y-109967399D01*
X134119000Y-109734010D01*
X134119000Y-109518450D01*
X133960250Y-109359700D01*
X133211000Y-109359700D01*
X132957000Y-109359700D01*
X132937000Y-109359700D01*
X132937000Y-109105700D01*
X132957000Y-109105700D01*
X132957000Y-108381450D01*
X132944300Y-108368750D01*
X132944300Y-108089700D01*
X132924300Y-108089700D01*
X132924300Y-107835700D01*
X132944300Y-107835700D01*
X132944300Y-107815700D01*
X133156898Y-107815700D01*
X133218300Y-107877102D01*
X133218300Y-108089700D01*
X133198300Y-108089700D01*
X133198300Y-108813950D01*
X133211000Y-108826650D01*
X133211000Y-109105700D01*
X133960250Y-109105700D01*
X134119000Y-108946950D01*
X134119000Y-108777802D01*
X134577899Y-109236701D01*
X134824460Y-109401448D01*
X135115300Y-109459300D01*
X135465056Y-109459300D01*
X135507810Y-109525741D01*
X135629800Y-109609093D01*
X135629800Y-110366560D01*
X134139800Y-110366560D01*
X133904483Y-110410838D01*
X133688359Y-110549910D01*
X133543369Y-110762110D01*
X133492360Y-111014000D01*
X133492360Y-113014000D01*
X133536638Y-113249317D01*
X133675710Y-113465441D01*
X133887910Y-113610431D01*
X134139800Y-113661440D01*
X138639800Y-113661440D01*
X138875117Y-113617162D01*
X139091241Y-113478090D01*
X139236231Y-113265890D01*
X139287240Y-113014000D01*
X139287240Y-111014000D01*
X139242962Y-110778683D01*
X139103890Y-110562559D01*
X138891690Y-110417569D01*
X138639800Y-110366560D01*
X137149800Y-110366560D01*
X137149800Y-109628201D01*
X137345591Y-109709300D01*
X137586150Y-109709300D01*
X137744900Y-109550550D01*
X137744900Y-108826300D01*
X137998900Y-108826300D01*
X137998900Y-109550550D01*
X138157650Y-109709300D01*
X138398209Y-109709300D01*
X138631598Y-109612627D01*
X138810227Y-109433999D01*
X138906900Y-109200610D01*
X138906900Y-109023150D01*
X140124800Y-109023150D01*
X140124800Y-109238710D01*
X140221473Y-109472099D01*
X140400102Y-109650727D01*
X140633491Y-109747400D01*
X140874050Y-109747400D01*
X141032800Y-109588650D01*
X141032800Y-108864400D01*
X140283550Y-108864400D01*
X140124800Y-109023150D01*
X138906900Y-109023150D01*
X138906900Y-108985050D01*
X138748150Y-108826300D01*
X137998900Y-108826300D01*
X137744900Y-108826300D01*
X137724900Y-108826300D01*
X137724900Y-108572300D01*
X137744900Y-108572300D01*
X137744900Y-108552300D01*
X137998900Y-108552300D01*
X137998900Y-108572300D01*
X138748150Y-108572300D01*
X138906900Y-108413550D01*
X138906900Y-108379800D01*
X140124800Y-108379800D01*
X140124800Y-108451650D01*
X140283550Y-108610400D01*
X141032800Y-108610400D01*
X141032800Y-108590400D01*
X141286800Y-108590400D01*
X141286800Y-108610400D01*
X141306800Y-108610400D01*
X141306800Y-108864400D01*
X141286800Y-108864400D01*
X141286800Y-109588650D01*
X141445550Y-109747400D01*
X141686109Y-109747400D01*
X141919498Y-109650727D01*
X141920868Y-109649357D01*
X142007910Y-109708831D01*
X142259800Y-109759840D01*
X143059800Y-109759840D01*
X143295117Y-109715562D01*
X143511241Y-109576490D01*
X143513006Y-109573908D01*
X144129800Y-110190702D01*
X144129800Y-110366560D01*
X142639800Y-110366560D01*
X142404483Y-110410838D01*
X142188359Y-110549910D01*
X142043369Y-110762110D01*
X141992360Y-111014000D01*
X141992360Y-113014000D01*
X142036638Y-113249317D01*
X142175710Y-113465441D01*
X142387910Y-113610431D01*
X142639800Y-113661440D01*
X147139800Y-113661440D01*
X147375117Y-113617162D01*
X147591241Y-113478090D01*
X147736231Y-113265890D01*
X147787240Y-113014000D01*
X147787240Y-111844052D01*
X147993100Y-111885000D01*
X148431895Y-111885000D01*
X148522910Y-112026441D01*
X148735110Y-112171431D01*
X148987000Y-112222440D01*
X149487000Y-112222440D01*
X149722317Y-112178162D01*
X149938441Y-112039090D01*
X149986134Y-111969289D01*
X150022910Y-112026441D01*
X150235110Y-112171431D01*
X150487000Y-112222440D01*
X150759638Y-112222440D01*
X151101299Y-112564101D01*
X151347860Y-112728848D01*
X151638700Y-112786700D01*
X160680400Y-112786700D01*
X160971239Y-112728848D01*
X161217801Y-112564101D01*
X161829462Y-111952440D01*
X162137000Y-111952440D01*
X162372317Y-111908162D01*
X162588441Y-111769090D01*
X162683990Y-111629250D01*
X162698673Y-111664698D01*
X162877301Y-111843327D01*
X163110690Y-111940000D01*
X163351250Y-111940000D01*
X163510000Y-111781250D01*
X163510000Y-110982000D01*
X163764000Y-110982000D01*
X163764000Y-111781250D01*
X163922750Y-111940000D01*
X164163310Y-111940000D01*
X164396699Y-111843327D01*
X164575327Y-111664698D01*
X164672000Y-111431309D01*
X164672000Y-111140750D01*
X164513250Y-110982000D01*
X163764000Y-110982000D01*
X163510000Y-110982000D01*
X163490000Y-110982000D01*
X163490000Y-110728000D01*
X163510000Y-110728000D01*
X163510000Y-109928750D01*
X163764000Y-109928750D01*
X163764000Y-110728000D01*
X164513250Y-110728000D01*
X164672000Y-110569250D01*
X164672000Y-110278691D01*
X164575327Y-110045302D01*
X164396699Y-109866673D01*
X164163310Y-109770000D01*
X163922750Y-109770000D01*
X163764000Y-109928750D01*
X163510000Y-109928750D01*
X163423988Y-109842738D01*
X163538441Y-109769090D01*
X163683431Y-109556890D01*
X163734440Y-109305000D01*
X163734440Y-108777462D01*
X163974401Y-108537501D01*
X164139148Y-108290940D01*
X164197000Y-108000100D01*
X164197000Y-107650000D01*
X165549560Y-107650000D01*
X165549560Y-108250000D01*
X165593838Y-108485317D01*
X165732910Y-108701441D01*
X165945110Y-108846431D01*
X166197000Y-108897440D01*
X167747000Y-108897440D01*
X167982317Y-108853162D01*
X168198441Y-108714090D01*
X168343431Y-108501890D01*
X168394440Y-108250000D01*
X168394440Y-107650000D01*
X168350162Y-107414683D01*
X168291822Y-107324020D01*
X168382000Y-107106310D01*
X168382000Y-106965750D01*
X168223250Y-106807000D01*
X167099000Y-106807000D01*
X167099000Y-106827000D01*
X166845000Y-106827000D01*
X166845000Y-106807000D01*
X165720750Y-106807000D01*
X165562000Y-106965750D01*
X165562000Y-107106310D01*
X165651806Y-107323122D01*
X165600569Y-107398110D01*
X165549560Y-107650000D01*
X164197000Y-107650000D01*
X164197000Y-106873386D01*
X164283431Y-106746890D01*
X164334440Y-106495000D01*
X164334440Y-105695750D01*
X165562000Y-105695750D01*
X165562000Y-105836310D01*
X165648442Y-106045000D01*
X165562000Y-106253690D01*
X165562000Y-106394250D01*
X165720750Y-106553000D01*
X166845000Y-106553000D01*
X166845000Y-105537000D01*
X167099000Y-105537000D01*
X167099000Y-106553000D01*
X168223250Y-106553000D01*
X168382000Y-106394250D01*
X168382000Y-106253690D01*
X168295558Y-106045000D01*
X168382000Y-105836310D01*
X168382000Y-105695750D01*
X168223250Y-105537000D01*
X167099000Y-105537000D01*
X166845000Y-105537000D01*
X165720750Y-105537000D01*
X165562000Y-105695750D01*
X164334440Y-105695750D01*
X164334440Y-105595000D01*
X164290162Y-105359683D01*
X164197000Y-105214905D01*
X164197000Y-104805959D01*
X164251160Y-104842148D01*
X164542000Y-104900000D01*
X165596666Y-104900000D01*
X165562000Y-104983690D01*
X165562000Y-105124250D01*
X165720750Y-105283000D01*
X166845000Y-105283000D01*
X166845000Y-105263000D01*
X167099000Y-105263000D01*
X167099000Y-105283000D01*
X168223250Y-105283000D01*
X168382000Y-105124250D01*
X168382000Y-104983690D01*
X168292194Y-104766878D01*
X168343431Y-104691890D01*
X168370031Y-104560533D01*
X169756899Y-105947401D01*
X170003461Y-106112148D01*
X170294300Y-106170000D01*
X170992086Y-106170000D01*
X170949560Y-106380000D01*
X170949560Y-106980000D01*
X170970805Y-107092910D01*
X170722399Y-106989762D01*
X170350433Y-106989438D01*
X170006657Y-107131483D01*
X169743408Y-107394273D01*
X169600762Y-107737801D01*
X169600438Y-108109767D01*
X169742483Y-108453543D01*
X170005273Y-108716792D01*
X170348801Y-108859438D01*
X170720767Y-108859762D01*
X171064543Y-108717717D01*
X171072273Y-108710000D01*
X171145437Y-108710000D01*
X171345110Y-108846431D01*
X171597000Y-108897440D01*
X173147000Y-108897440D01*
X173382317Y-108853162D01*
X173598441Y-108714090D01*
X173743431Y-108501890D01*
X173794440Y-108250000D01*
X173794440Y-107650000D01*
X173750162Y-107414683D01*
X173686322Y-107315472D01*
X173743431Y-107231890D01*
X173794440Y-106980000D01*
X173794440Y-106380000D01*
X173750162Y-106144683D01*
X173686322Y-106045472D01*
X173743431Y-105961890D01*
X173794440Y-105710000D01*
X173794440Y-105110000D01*
X173750162Y-104874683D01*
X173686322Y-104775472D01*
X173743431Y-104691890D01*
X173794440Y-104440000D01*
X173794440Y-103840000D01*
X173750162Y-103604683D01*
X173611090Y-103388559D01*
X173398890Y-103243569D01*
X173147000Y-103192560D01*
X171597000Y-103192560D01*
X171361683Y-103236838D01*
X171145559Y-103375910D01*
X171142764Y-103380000D01*
X170697905Y-103380000D01*
X170582699Y-103332162D01*
X170210733Y-103331838D01*
X169866957Y-103473883D01*
X169649782Y-103690680D01*
X169428700Y-103469598D01*
X169428700Y-101765100D01*
X169407765Y-101659852D01*
X169370848Y-101474260D01*
X169206101Y-101227699D01*
X167603687Y-99625285D01*
X167656699Y-99603327D01*
X167835327Y-99424698D01*
X167932000Y-99191309D01*
X167932000Y-97600750D01*
X167773250Y-97442000D01*
X166624000Y-97442000D01*
X166624000Y-97462000D01*
X166370000Y-97462000D01*
X166370000Y-97442000D01*
X165220750Y-97442000D01*
X165062000Y-97600750D01*
X165062000Y-99191309D01*
X165071565Y-99214400D01*
X161489209Y-99214400D01*
X161539038Y-99094399D01*
X161539362Y-98722433D01*
X161397317Y-98378657D01*
X161327000Y-98308217D01*
X161327000Y-97262950D01*
X173755500Y-97262950D01*
X173755500Y-97528510D01*
X173852173Y-97761899D01*
X174030802Y-97940527D01*
X174264191Y-98037200D01*
X174529750Y-98037200D01*
X174688500Y-97878450D01*
X174688500Y-97104200D01*
X174942500Y-97104200D01*
X174942500Y-97878450D01*
X175101250Y-98037200D01*
X175366809Y-98037200D01*
X175600198Y-97940527D01*
X175778827Y-97761899D01*
X175875500Y-97528510D01*
X175875500Y-97262950D01*
X175716750Y-97104200D01*
X174942500Y-97104200D01*
X174688500Y-97104200D01*
X173914250Y-97104200D01*
X173755500Y-97262950D01*
X161327000Y-97262950D01*
X161327000Y-96101563D01*
X161417633Y-95968917D01*
X161502910Y-96101441D01*
X161715110Y-96246431D01*
X161967000Y-96297440D01*
X162567000Y-96297440D01*
X162802317Y-96253162D01*
X163018441Y-96114090D01*
X163163431Y-95901890D01*
X163164804Y-95895109D01*
X163326001Y-95787401D01*
X163840002Y-95273400D01*
X165130466Y-95273400D01*
X165062000Y-95438691D01*
X165062000Y-97029250D01*
X165220750Y-97188000D01*
X166370000Y-97188000D01*
X166370000Y-97168000D01*
X166624000Y-97168000D01*
X166624000Y-97188000D01*
X167773250Y-97188000D01*
X167932000Y-97029250D01*
X167932000Y-95438691D01*
X167863534Y-95273400D01*
X172925898Y-95273400D01*
X173760814Y-96108316D01*
X173801766Y-96314195D01*
X173755500Y-96425890D01*
X173755500Y-96691450D01*
X173914250Y-96850200D01*
X174229982Y-96850200D01*
X174389089Y-96956512D01*
X174794733Y-97037200D01*
X174836267Y-97037200D01*
X175241911Y-96956512D01*
X175401018Y-96850200D01*
X175716750Y-96850200D01*
X175875500Y-96691450D01*
X175875500Y-96425890D01*
X175829234Y-96314195D01*
X175896267Y-95977200D01*
X175815579Y-95571556D01*
X175585800Y-95227667D01*
X175241911Y-94997888D01*
X174836267Y-94917200D01*
X174794733Y-94917200D01*
X174731817Y-94929715D01*
X173778101Y-93975999D01*
X173531539Y-93811252D01*
X173240700Y-93753400D01*
X167926539Y-93753400D01*
X167944440Y-93665000D01*
X167944440Y-90165000D01*
X167900162Y-89929683D01*
X167761090Y-89713559D01*
X167548890Y-89568569D01*
X167297000Y-89517560D01*
X165697000Y-89517560D01*
X165461683Y-89561838D01*
X165245559Y-89700910D01*
X165100569Y-89913110D01*
X165049560Y-90165000D01*
X165049560Y-91155000D01*
X164467402Y-91155000D01*
X163503801Y-90191399D01*
X163257239Y-90026652D01*
X162966400Y-89968800D01*
X159702500Y-89968800D01*
X159459914Y-90017054D01*
X159411660Y-90026652D01*
X159165099Y-90191399D01*
X157972000Y-91384498D01*
X157972000Y-90238690D01*
X157875327Y-90005301D01*
X157696698Y-89826673D01*
X157463309Y-89730000D01*
X156622750Y-89730000D01*
X156464000Y-89888750D01*
X156464000Y-91738000D01*
X156484000Y-91738000D01*
X156484000Y-91992000D01*
X156464000Y-91992000D01*
X156464000Y-94737440D01*
X156484000Y-94737440D01*
X156484000Y-94952000D01*
X156464000Y-94952000D01*
X156464000Y-96051250D01*
X156579000Y-96166250D01*
X156579000Y-96393000D01*
X156584560Y-96393000D01*
X156584560Y-96647000D01*
X156579000Y-96647000D01*
X156579000Y-97663000D01*
X156640750Y-97663000D01*
X156755750Y-97778000D01*
X157480000Y-97778000D01*
X157480000Y-97758000D01*
X157734000Y-97758000D01*
X157734000Y-97778000D01*
X158458250Y-97778000D01*
X158617000Y-97619250D01*
X158617000Y-97378691D01*
X158520327Y-97145302D01*
X158518957Y-97143932D01*
X158578431Y-97056890D01*
X158629440Y-96805000D01*
X158629440Y-96141404D01*
X158788441Y-96039090D01*
X158933431Y-95826890D01*
X158982415Y-95585000D01*
X159619560Y-95585000D01*
X159619560Y-95650000D01*
X159663838Y-95885317D01*
X159802910Y-96101441D01*
X159807000Y-96104236D01*
X159807000Y-98389334D01*
X159669362Y-98720801D01*
X159669038Y-99092767D01*
X159719296Y-99214400D01*
X156143802Y-99214400D01*
X155712000Y-98782598D01*
X155712000Y-98711486D01*
X155925691Y-98800000D01*
X156166250Y-98800000D01*
X156325000Y-98641250D01*
X156325000Y-97917000D01*
X156579000Y-97917000D01*
X156579000Y-98641250D01*
X156737750Y-98800000D01*
X156828974Y-98800000D01*
X156872301Y-98843327D01*
X157105690Y-98940000D01*
X157321250Y-98940000D01*
X157480000Y-98781250D01*
X157480000Y-98308209D01*
X157487000Y-98291310D01*
X157487000Y-98075750D01*
X157480000Y-98068750D01*
X157480000Y-98032000D01*
X157734000Y-98032000D01*
X157734000Y-98781250D01*
X157892750Y-98940000D01*
X158108310Y-98940000D01*
X158341699Y-98843327D01*
X158520327Y-98664698D01*
X158617000Y-98431309D01*
X158617000Y-98190750D01*
X158458250Y-98032000D01*
X157734000Y-98032000D01*
X157480000Y-98032000D01*
X157443250Y-98032000D01*
X157328250Y-97917000D01*
X156579000Y-97917000D01*
X156325000Y-97917000D01*
X156305000Y-97917000D01*
X156305000Y-97663000D01*
X156325000Y-97663000D01*
X156325000Y-96647000D01*
X156305000Y-96647000D01*
X156305000Y-96393000D01*
X156325000Y-96393000D01*
X156325000Y-95668750D01*
X156210000Y-95553750D01*
X156210000Y-94952000D01*
X156190000Y-94952000D01*
X156190000Y-94737440D01*
X156210000Y-94737440D01*
X156210000Y-91992000D01*
X154860750Y-91992000D01*
X154702000Y-92150750D01*
X154702000Y-93375008D01*
X154701400Y-93427560D01*
X154337000Y-93427560D01*
X154101683Y-93471838D01*
X153885559Y-93610910D01*
X153740569Y-93823110D01*
X153734111Y-93855000D01*
X153597463Y-93855000D01*
X153565327Y-93822808D01*
X153221799Y-93680162D01*
X152849833Y-93679838D01*
X152506057Y-93821883D01*
X152242808Y-94084673D01*
X152100162Y-94428201D01*
X152099838Y-94800167D01*
X152241883Y-95143943D01*
X152504673Y-95407192D01*
X152848201Y-95549838D01*
X153220167Y-95550162D01*
X153563943Y-95408117D01*
X153597118Y-95375000D01*
X153689560Y-95375000D01*
X153689560Y-95575000D01*
X153733838Y-95810317D01*
X153872910Y-96026441D01*
X153921804Y-96059849D01*
X153904560Y-96145000D01*
X153904560Y-96895000D01*
X153948838Y-97130317D01*
X153962970Y-97152279D01*
X153955569Y-97163110D01*
X153904560Y-97415000D01*
X153904560Y-98165000D01*
X153948838Y-98400317D01*
X154087910Y-98616441D01*
X154192000Y-98687563D01*
X154192000Y-99097400D01*
X154249852Y-99388239D01*
X154414599Y-99634801D01*
X154917358Y-100137560D01*
X154667000Y-100137560D01*
X154431683Y-100181838D01*
X154215559Y-100320910D01*
X154070569Y-100533110D01*
X154019560Y-100785000D01*
X154019560Y-101685000D01*
X154063838Y-101920317D01*
X154202910Y-102136441D01*
X154204548Y-102137560D01*
X153717000Y-102137560D01*
X153481683Y-102181838D01*
X153265559Y-102320910D01*
X153120569Y-102533110D01*
X153069560Y-102785000D01*
X153069560Y-103207638D01*
X152262198Y-104015000D01*
X151542105Y-104015000D01*
X151451090Y-103873559D01*
X151238890Y-103728569D01*
X150987000Y-103677560D01*
X150487000Y-103677560D01*
X150251683Y-103721838D01*
X150035559Y-103860910D01*
X149997000Y-103917343D01*
X149997000Y-102170800D01*
X149939148Y-101879961D01*
X149774401Y-101633399D01*
X145533601Y-97392599D01*
X145287039Y-97227852D01*
X144996200Y-97170000D01*
X141209440Y-97170000D01*
X141209440Y-96855000D01*
X141185056Y-96725411D01*
X141209440Y-96605000D01*
X141209440Y-96055000D01*
X141165162Y-95819683D01*
X141026090Y-95603559D01*
X140834597Y-95472718D01*
X140990943Y-95408117D01*
X141254192Y-95145327D01*
X141396838Y-94801799D01*
X141397162Y-94429833D01*
X141255117Y-94086057D01*
X140992327Y-93822808D01*
X140648799Y-93680162D01*
X140276833Y-93679838D01*
X139933057Y-93821883D01*
X139884856Y-93870000D01*
X139380481Y-93870000D01*
X139432000Y-93611000D01*
X139432000Y-93607931D01*
X139523441Y-93549090D01*
X139668431Y-93336890D01*
X139719440Y-93085000D01*
X139719440Y-92335000D01*
X139675162Y-92099683D01*
X139536090Y-91883559D01*
X139328224Y-91741530D01*
X139209401Y-91563699D01*
X138789601Y-91143899D01*
X138543039Y-90979152D01*
X138252200Y-90921300D01*
X129870200Y-90921300D01*
X129579361Y-90979152D01*
X129332799Y-91143899D01*
X129014599Y-91462099D01*
X128849852Y-91708661D01*
X128834755Y-91784557D01*
X128700559Y-91870910D01*
X128555569Y-92083110D01*
X128504560Y-92335000D01*
X128504560Y-93085000D01*
X128548838Y-93320317D01*
X128687910Y-93536441D01*
X128797056Y-93611017D01*
X128849852Y-93876439D01*
X129014599Y-94123001D01*
X129189560Y-94297962D01*
X129189560Y-95380000D01*
X129196043Y-95414454D01*
X129162000Y-95407560D01*
X127662000Y-95407560D01*
X127426683Y-95451838D01*
X127210559Y-95590910D01*
X127065569Y-95803110D01*
X127014560Y-96055000D01*
X127014560Y-96134091D01*
X127007000Y-96132560D01*
X126207000Y-96132560D01*
X125971683Y-96176838D01*
X125868354Y-96243329D01*
X125866698Y-96241673D01*
X125633309Y-96145000D01*
X125392750Y-96145000D01*
X125234000Y-96303750D01*
X125234000Y-97028000D01*
X125254000Y-97028000D01*
X125254000Y-97282000D01*
X125234000Y-97282000D01*
X125234000Y-98006250D01*
X125392750Y-98165000D01*
X125626398Y-98165000D01*
X125221398Y-98570000D01*
X124422757Y-98570000D01*
X124396090Y-98528559D01*
X124183890Y-98383569D01*
X123932000Y-98332560D01*
X123332000Y-98332560D01*
X123096683Y-98376838D01*
X122880559Y-98515910D01*
X122735569Y-98728110D01*
X122684560Y-98980000D01*
X122684560Y-99202638D01*
X122679440Y-99207758D01*
X122679440Y-98980000D01*
X122635162Y-98744683D01*
X122509099Y-98548776D01*
X122534392Y-98523527D01*
X122677038Y-98179999D01*
X122677362Y-97808033D01*
X122535317Y-97464257D01*
X122511851Y-97440750D01*
X124072000Y-97440750D01*
X124072000Y-97656310D01*
X124168673Y-97889699D01*
X124347302Y-98068327D01*
X124580691Y-98165000D01*
X124821250Y-98165000D01*
X124980000Y-98006250D01*
X124980000Y-97282000D01*
X124230750Y-97282000D01*
X124072000Y-97440750D01*
X122511851Y-97440750D01*
X122272527Y-97201008D01*
X121928999Y-97058362D01*
X121557033Y-97058038D01*
X121213257Y-97200083D01*
X120950008Y-97462873D01*
X120807362Y-97806401D01*
X120807038Y-98178367D01*
X120949083Y-98522143D01*
X120965241Y-98538329D01*
X120943601Y-98570000D01*
X120193402Y-98570000D01*
X120116001Y-98492599D01*
X119869439Y-98327852D01*
X119578600Y-98270000D01*
X118735238Y-98270000D01*
X118783229Y-98131131D01*
X118634563Y-97957000D01*
X117809000Y-97957000D01*
X117809000Y-97977000D01*
X117555000Y-97977000D01*
X117555000Y-97957000D01*
X116729437Y-97957000D01*
X116580771Y-98131131D01*
X116642560Y-98309926D01*
X116555559Y-98365910D01*
X116410569Y-98578110D01*
X116359560Y-98830000D01*
X113232000Y-98830000D01*
X113232000Y-97131874D01*
X113612881Y-97131874D01*
X113814632Y-97542763D01*
X114155322Y-97830002D01*
X114580000Y-97965000D01*
X114855000Y-97965000D01*
X114855000Y-96957000D01*
X115109000Y-96957000D01*
X115109000Y-97965000D01*
X115384000Y-97965000D01*
X115808678Y-97830002D01*
X116149368Y-97542763D01*
X116156190Y-97528869D01*
X116580771Y-97528869D01*
X116729437Y-97703000D01*
X117555000Y-97703000D01*
X117555000Y-96737266D01*
X117809000Y-96737266D01*
X117809000Y-97703000D01*
X118634563Y-97703000D01*
X118783229Y-97528869D01*
X118641568Y-97118951D01*
X118353821Y-96794448D01*
X118067363Y-96653690D01*
X124072000Y-96653690D01*
X124072000Y-96869250D01*
X124230750Y-97028000D01*
X124980000Y-97028000D01*
X124980000Y-96303750D01*
X124821250Y-96145000D01*
X124580691Y-96145000D01*
X124347302Y-96241673D01*
X124168673Y-96420301D01*
X124072000Y-96653690D01*
X118067363Y-96653690D01*
X117979938Y-96610732D01*
X117809000Y-96737266D01*
X117555000Y-96737266D01*
X117384062Y-96610732D01*
X117010179Y-96794448D01*
X116722432Y-97118951D01*
X116580771Y-97528869D01*
X116156190Y-97528869D01*
X116351119Y-97131874D01*
X116224954Y-96957000D01*
X115109000Y-96957000D01*
X114855000Y-96957000D01*
X113739046Y-96957000D01*
X113612881Y-97131874D01*
X113232000Y-97131874D01*
X113232000Y-96528126D01*
X113612881Y-96528126D01*
X113739046Y-96703000D01*
X114855000Y-96703000D01*
X114855000Y-95695000D01*
X115109000Y-95695000D01*
X115109000Y-96703000D01*
X116224954Y-96703000D01*
X116351119Y-96528126D01*
X116149368Y-96117237D01*
X115808678Y-95829998D01*
X115384000Y-95695000D01*
X115109000Y-95695000D01*
X114855000Y-95695000D01*
X114580000Y-95695000D01*
X114155322Y-95829998D01*
X113814632Y-96117237D01*
X113612881Y-96528126D01*
X113232000Y-96528126D01*
X113232000Y-90238690D01*
X154702000Y-90238690D01*
X154702000Y-91579250D01*
X154860750Y-91738000D01*
X156210000Y-91738000D01*
X156210000Y-89888750D01*
X156051250Y-89730000D01*
X155210691Y-89730000D01*
X154977302Y-89826673D01*
X154798673Y-90005301D01*
X154702000Y-90238690D01*
X113232000Y-90238690D01*
X113232000Y-88340000D01*
X175947000Y-88340000D01*
X175947000Y-114225000D01*
X175947000Y-114225000D01*
G37*
X175947000Y-114225000D02*
X113232000Y-114225000D01*
X113232000Y-104131874D01*
X113612881Y-104131874D01*
X113814632Y-104542763D01*
X114155322Y-104830002D01*
X114580000Y-104965000D01*
X114855000Y-104965000D01*
X114855000Y-103957000D01*
X115109000Y-103957000D01*
X115109000Y-104965000D01*
X115384000Y-104965000D01*
X115808678Y-104830002D01*
X116149368Y-104542763D01*
X116351119Y-104131874D01*
X116224954Y-103957000D01*
X115109000Y-103957000D01*
X114855000Y-103957000D01*
X113739046Y-103957000D01*
X113612881Y-104131874D01*
X113232000Y-104131874D01*
X113232000Y-103528126D01*
X113612881Y-103528126D01*
X113739046Y-103703000D01*
X114855000Y-103703000D01*
X114855000Y-102695000D01*
X115109000Y-102695000D01*
X115109000Y-103703000D01*
X116224954Y-103703000D01*
X116351119Y-103528126D01*
X116156191Y-103131131D01*
X116580771Y-103131131D01*
X116722432Y-103541049D01*
X117010179Y-103865552D01*
X117384062Y-104049268D01*
X117555000Y-103922734D01*
X117555000Y-102957000D01*
X117809000Y-102957000D01*
X117809000Y-103922734D01*
X117979938Y-104049268D01*
X118353821Y-103865552D01*
X118641568Y-103541049D01*
X118783229Y-103131131D01*
X118634563Y-102957000D01*
X117809000Y-102957000D01*
X117555000Y-102957000D01*
X116729437Y-102957000D01*
X116580771Y-103131131D01*
X116156191Y-103131131D01*
X116149368Y-103117237D01*
X115808678Y-102829998D01*
X115384000Y-102695000D01*
X115109000Y-102695000D01*
X114855000Y-102695000D01*
X114580000Y-102695000D01*
X114155322Y-102829998D01*
X113814632Y-103117237D01*
X113612881Y-103528126D01*
X113232000Y-103528126D01*
X113232000Y-98830000D01*
X116359560Y-98830000D01*
X116359560Y-99230000D01*
X116383944Y-99359589D01*
X116359560Y-99480000D01*
X116359560Y-99880000D01*
X116383944Y-100009589D01*
X116359560Y-100130000D01*
X116359560Y-100530000D01*
X116379450Y-100635705D01*
X116372000Y-100653690D01*
X116372000Y-100721250D01*
X116401004Y-100750254D01*
X116403838Y-100765317D01*
X116542910Y-100981441D01*
X116551598Y-100987377D01*
X116468673Y-101070301D01*
X116417920Y-101192830D01*
X116372000Y-101238750D01*
X116372000Y-101371250D01*
X116417920Y-101417170D01*
X116468673Y-101539699D01*
X116647302Y-101718327D01*
X116675483Y-101730000D01*
X116530750Y-101730000D01*
X116372000Y-101888750D01*
X116372000Y-101956310D01*
X116468673Y-102189699D01*
X116639090Y-102360115D01*
X116580771Y-102528869D01*
X116729437Y-102703000D01*
X117555000Y-102703000D01*
X117555000Y-101730000D01*
X117545184Y-101730000D01*
X117508445Y-101702805D01*
X117555000Y-101656250D01*
X117555000Y-101483000D01*
X117809000Y-101483000D01*
X117809000Y-101656250D01*
X117855555Y-101702805D01*
X117818816Y-101730000D01*
X117809000Y-101730000D01*
X117809000Y-102703000D01*
X118634563Y-102703000D01*
X118783229Y-102528869D01*
X118724910Y-102360115D01*
X118895327Y-102189699D01*
X118992000Y-101956310D01*
X118992000Y-101888750D01*
X118833250Y-101730000D01*
X118688517Y-101730000D01*
X118716698Y-101718327D01*
X118819275Y-101615750D01*
X120797000Y-101615750D01*
X120797000Y-101806310D01*
X120893673Y-102039699D01*
X121072302Y-102218327D01*
X121305691Y-102315000D01*
X121646250Y-102315000D01*
X121805000Y-102156250D01*
X121805000Y-101457000D01*
X120955750Y-101457000D01*
X120797000Y-101615750D01*
X118819275Y-101615750D01*
X118895327Y-101539699D01*
X118946080Y-101417170D01*
X118992000Y-101371250D01*
X118992000Y-101238750D01*
X118946080Y-101192830D01*
X118910529Y-101107002D01*
X118992000Y-101107002D01*
X118992000Y-101090000D01*
X119093839Y-101090000D01*
X119292361Y-101222648D01*
X119583200Y-101280500D01*
X122079000Y-101280500D01*
X122079000Y-101457000D01*
X122059000Y-101457000D01*
X122059000Y-102156250D01*
X122217750Y-102315000D01*
X122558309Y-102315000D01*
X122791698Y-102218327D01*
X122874252Y-102135774D01*
X123080110Y-102276431D01*
X123332000Y-102327440D01*
X123932000Y-102327440D01*
X124167317Y-102283162D01*
X124231206Y-102242050D01*
X125596300Y-102242050D01*
X125596300Y-102482609D01*
X125692973Y-102715998D01*
X125871601Y-102894627D01*
X126104990Y-102991300D01*
X126320550Y-102991300D01*
X126479300Y-102832550D01*
X126479300Y-102083300D01*
X125755050Y-102083300D01*
X125596300Y-102242050D01*
X124231206Y-102242050D01*
X124383441Y-102144090D01*
X124420399Y-102090000D01*
X124514100Y-102090000D01*
X124804939Y-102032148D01*
X125051501Y-101867401D01*
X125672236Y-101246666D01*
X125596300Y-101429991D01*
X125596300Y-101670550D01*
X125755050Y-101829300D01*
X126479300Y-101829300D01*
X126479300Y-101809300D01*
X126733300Y-101809300D01*
X126733300Y-101829300D01*
X126753300Y-101829300D01*
X126753300Y-102083300D01*
X126733300Y-102083300D01*
X126733300Y-102832550D01*
X126892050Y-102991300D01*
X127014560Y-102991300D01*
X127014560Y-103005000D01*
X127038944Y-103134589D01*
X127014560Y-103255000D01*
X127014560Y-103805000D01*
X127038944Y-103934589D01*
X127014560Y-104055000D01*
X127014560Y-104605000D01*
X127058838Y-104840317D01*
X127197910Y-105056441D01*
X127410110Y-105201431D01*
X127662000Y-105252440D01*
X129162000Y-105252440D01*
X129196454Y-105245957D01*
X129189560Y-105280000D01*
X129189560Y-106402600D01*
X129184400Y-106402600D01*
X128893560Y-106460452D01*
X128646999Y-106625199D01*
X128342199Y-106929999D01*
X128177452Y-107176561D01*
X128119600Y-107467400D01*
X128119600Y-109080300D01*
X128177452Y-109371139D01*
X128342199Y-109617701D01*
X128609599Y-109885101D01*
X128856161Y-110049848D01*
X129141941Y-110106694D01*
X129269910Y-110194131D01*
X129521800Y-110245140D01*
X130421800Y-110245140D01*
X130657117Y-110200862D01*
X130796273Y-110111318D01*
X130932110Y-110204131D01*
X131184000Y-110255140D01*
X131984000Y-110255140D01*
X132219317Y-110210862D01*
X132322646Y-110144371D01*
X132324302Y-110146027D01*
X132557691Y-110242700D01*
X132798250Y-110242700D01*
X132957000Y-110083950D01*
X132957000Y-109359700D01*
X133211000Y-109359700D01*
X133211000Y-110083950D01*
X133369750Y-110242700D01*
X133610309Y-110242700D01*
X133843698Y-110146027D01*
X134022327Y-109967399D01*
X134119000Y-109734010D01*
X134119000Y-109518450D01*
X133960250Y-109359700D01*
X133211000Y-109359700D01*
X132957000Y-109359700D01*
X132937000Y-109359700D01*
X132937000Y-109105700D01*
X132957000Y-109105700D01*
X132957000Y-108381450D01*
X132944300Y-108368750D01*
X132944300Y-108089700D01*
X132924300Y-108089700D01*
X132924300Y-107835700D01*
X132944300Y-107835700D01*
X132944300Y-107815700D01*
X133156898Y-107815700D01*
X133218300Y-107877102D01*
X133218300Y-108089700D01*
X133198300Y-108089700D01*
X133198300Y-108813950D01*
X133211000Y-108826650D01*
X133211000Y-109105700D01*
X133960250Y-109105700D01*
X134119000Y-108946950D01*
X134119000Y-108777802D01*
X134577899Y-109236701D01*
X134824460Y-109401448D01*
X135115300Y-109459300D01*
X135465056Y-109459300D01*
X135507810Y-109525741D01*
X135629800Y-109609093D01*
X135629800Y-110366560D01*
X134139800Y-110366560D01*
X133904483Y-110410838D01*
X133688359Y-110549910D01*
X133543369Y-110762110D01*
X133492360Y-111014000D01*
X133492360Y-113014000D01*
X133536638Y-113249317D01*
X133675710Y-113465441D01*
X133887910Y-113610431D01*
X134139800Y-113661440D01*
X138639800Y-113661440D01*
X138875117Y-113617162D01*
X139091241Y-113478090D01*
X139236231Y-113265890D01*
X139287240Y-113014000D01*
X139287240Y-111014000D01*
X139242962Y-110778683D01*
X139103890Y-110562559D01*
X138891690Y-110417569D01*
X138639800Y-110366560D01*
X137149800Y-110366560D01*
X137149800Y-109628201D01*
X137345591Y-109709300D01*
X137586150Y-109709300D01*
X137744900Y-109550550D01*
X137744900Y-108826300D01*
X137998900Y-108826300D01*
X137998900Y-109550550D01*
X138157650Y-109709300D01*
X138398209Y-109709300D01*
X138631598Y-109612627D01*
X138810227Y-109433999D01*
X138906900Y-109200610D01*
X138906900Y-109023150D01*
X140124800Y-109023150D01*
X140124800Y-109238710D01*
X140221473Y-109472099D01*
X140400102Y-109650727D01*
X140633491Y-109747400D01*
X140874050Y-109747400D01*
X141032800Y-109588650D01*
X141032800Y-108864400D01*
X140283550Y-108864400D01*
X140124800Y-109023150D01*
X138906900Y-109023150D01*
X138906900Y-108985050D01*
X138748150Y-108826300D01*
X137998900Y-108826300D01*
X137744900Y-108826300D01*
X137724900Y-108826300D01*
X137724900Y-108572300D01*
X137744900Y-108572300D01*
X137744900Y-108552300D01*
X137998900Y-108552300D01*
X137998900Y-108572300D01*
X138748150Y-108572300D01*
X138906900Y-108413550D01*
X138906900Y-108379800D01*
X140124800Y-108379800D01*
X140124800Y-108451650D01*
X140283550Y-108610400D01*
X141032800Y-108610400D01*
X141032800Y-108590400D01*
X141286800Y-108590400D01*
X141286800Y-108610400D01*
X141306800Y-108610400D01*
X141306800Y-108864400D01*
X141286800Y-108864400D01*
X141286800Y-109588650D01*
X141445550Y-109747400D01*
X141686109Y-109747400D01*
X141919498Y-109650727D01*
X141920868Y-109649357D01*
X142007910Y-109708831D01*
X142259800Y-109759840D01*
X143059800Y-109759840D01*
X143295117Y-109715562D01*
X143511241Y-109576490D01*
X143513006Y-109573908D01*
X144129800Y-110190702D01*
X144129800Y-110366560D01*
X142639800Y-110366560D01*
X142404483Y-110410838D01*
X142188359Y-110549910D01*
X142043369Y-110762110D01*
X141992360Y-111014000D01*
X141992360Y-113014000D01*
X142036638Y-113249317D01*
X142175710Y-113465441D01*
X142387910Y-113610431D01*
X142639800Y-113661440D01*
X147139800Y-113661440D01*
X147375117Y-113617162D01*
X147591241Y-113478090D01*
X147736231Y-113265890D01*
X147787240Y-113014000D01*
X147787240Y-111844052D01*
X147993100Y-111885000D01*
X148431895Y-111885000D01*
X148522910Y-112026441D01*
X148735110Y-112171431D01*
X148987000Y-112222440D01*
X149487000Y-112222440D01*
X149722317Y-112178162D01*
X149938441Y-112039090D01*
X149986134Y-111969289D01*
X150022910Y-112026441D01*
X150235110Y-112171431D01*
X150487000Y-112222440D01*
X150759638Y-112222440D01*
X151101299Y-112564101D01*
X151347860Y-112728848D01*
X151638700Y-112786700D01*
X160680400Y-112786700D01*
X160971239Y-112728848D01*
X161217801Y-112564101D01*
X161829462Y-111952440D01*
X162137000Y-111952440D01*
X162372317Y-111908162D01*
X162588441Y-111769090D01*
X162683990Y-111629250D01*
X162698673Y-111664698D01*
X162877301Y-111843327D01*
X163110690Y-111940000D01*
X163351250Y-111940000D01*
X163510000Y-111781250D01*
X163510000Y-110982000D01*
X163764000Y-110982000D01*
X163764000Y-111781250D01*
X163922750Y-111940000D01*
X164163310Y-111940000D01*
X164396699Y-111843327D01*
X164575327Y-111664698D01*
X164672000Y-111431309D01*
X164672000Y-111140750D01*
X164513250Y-110982000D01*
X163764000Y-110982000D01*
X163510000Y-110982000D01*
X163490000Y-110982000D01*
X163490000Y-110728000D01*
X163510000Y-110728000D01*
X163510000Y-109928750D01*
X163764000Y-109928750D01*
X163764000Y-110728000D01*
X164513250Y-110728000D01*
X164672000Y-110569250D01*
X164672000Y-110278691D01*
X164575327Y-110045302D01*
X164396699Y-109866673D01*
X164163310Y-109770000D01*
X163922750Y-109770000D01*
X163764000Y-109928750D01*
X163510000Y-109928750D01*
X163423988Y-109842738D01*
X163538441Y-109769090D01*
X163683431Y-109556890D01*
X163734440Y-109305000D01*
X163734440Y-108777462D01*
X163974401Y-108537501D01*
X164139148Y-108290940D01*
X164197000Y-108000100D01*
X164197000Y-107650000D01*
X165549560Y-107650000D01*
X165549560Y-108250000D01*
X165593838Y-108485317D01*
X165732910Y-108701441D01*
X165945110Y-108846431D01*
X166197000Y-108897440D01*
X167747000Y-108897440D01*
X167982317Y-108853162D01*
X168198441Y-108714090D01*
X168343431Y-108501890D01*
X168394440Y-108250000D01*
X168394440Y-107650000D01*
X168350162Y-107414683D01*
X168291822Y-107324020D01*
X168382000Y-107106310D01*
X168382000Y-106965750D01*
X168223250Y-106807000D01*
X167099000Y-106807000D01*
X167099000Y-106827000D01*
X166845000Y-106827000D01*
X166845000Y-106807000D01*
X165720750Y-106807000D01*
X165562000Y-106965750D01*
X165562000Y-107106310D01*
X165651806Y-107323122D01*
X165600569Y-107398110D01*
X165549560Y-107650000D01*
X164197000Y-107650000D01*
X164197000Y-106873386D01*
X164283431Y-106746890D01*
X164334440Y-106495000D01*
X164334440Y-105695750D01*
X165562000Y-105695750D01*
X165562000Y-105836310D01*
X165648442Y-106045000D01*
X165562000Y-106253690D01*
X165562000Y-106394250D01*
X165720750Y-106553000D01*
X166845000Y-106553000D01*
X166845000Y-105537000D01*
X167099000Y-105537000D01*
X167099000Y-106553000D01*
X168223250Y-106553000D01*
X168382000Y-106394250D01*
X168382000Y-106253690D01*
X168295558Y-106045000D01*
X168382000Y-105836310D01*
X168382000Y-105695750D01*
X168223250Y-105537000D01*
X167099000Y-105537000D01*
X166845000Y-105537000D01*
X165720750Y-105537000D01*
X165562000Y-105695750D01*
X164334440Y-105695750D01*
X164334440Y-105595000D01*
X164290162Y-105359683D01*
X164197000Y-105214905D01*
X164197000Y-104805959D01*
X164251160Y-104842148D01*
X164542000Y-104900000D01*
X165596666Y-104900000D01*
X165562000Y-104983690D01*
X165562000Y-105124250D01*
X165720750Y-105283000D01*
X166845000Y-105283000D01*
X166845000Y-105263000D01*
X167099000Y-105263000D01*
X167099000Y-105283000D01*
X168223250Y-105283000D01*
X168382000Y-105124250D01*
X168382000Y-104983690D01*
X168292194Y-104766878D01*
X168343431Y-104691890D01*
X168370031Y-104560533D01*
X169756899Y-105947401D01*
X170003461Y-106112148D01*
X170294300Y-106170000D01*
X170992086Y-106170000D01*
X170949560Y-106380000D01*
X170949560Y-106980000D01*
X170970805Y-107092910D01*
X170722399Y-106989762D01*
X170350433Y-106989438D01*
X170006657Y-107131483D01*
X169743408Y-107394273D01*
X169600762Y-107737801D01*
X169600438Y-108109767D01*
X169742483Y-108453543D01*
X170005273Y-108716792D01*
X170348801Y-108859438D01*
X170720767Y-108859762D01*
X171064543Y-108717717D01*
X171072273Y-108710000D01*
X171145437Y-108710000D01*
X171345110Y-108846431D01*
X171597000Y-108897440D01*
X173147000Y-108897440D01*
X173382317Y-108853162D01*
X173598441Y-108714090D01*
X173743431Y-108501890D01*
X173794440Y-108250000D01*
X173794440Y-107650000D01*
X173750162Y-107414683D01*
X173686322Y-107315472D01*
X173743431Y-107231890D01*
X173794440Y-106980000D01*
X173794440Y-106380000D01*
X173750162Y-106144683D01*
X173686322Y-106045472D01*
X173743431Y-105961890D01*
X173794440Y-105710000D01*
X173794440Y-105110000D01*
X173750162Y-104874683D01*
X173686322Y-104775472D01*
X173743431Y-104691890D01*
X173794440Y-104440000D01*
X173794440Y-103840000D01*
X173750162Y-103604683D01*
X173611090Y-103388559D01*
X173398890Y-103243569D01*
X173147000Y-103192560D01*
X171597000Y-103192560D01*
X171361683Y-103236838D01*
X171145559Y-103375910D01*
X171142764Y-103380000D01*
X170697905Y-103380000D01*
X170582699Y-103332162D01*
X170210733Y-103331838D01*
X169866957Y-103473883D01*
X169649782Y-103690680D01*
X169428700Y-103469598D01*
X169428700Y-101765100D01*
X169407765Y-101659852D01*
X169370848Y-101474260D01*
X169206101Y-101227699D01*
X167603687Y-99625285D01*
X167656699Y-99603327D01*
X167835327Y-99424698D01*
X167932000Y-99191309D01*
X167932000Y-97600750D01*
X167773250Y-97442000D01*
X166624000Y-97442000D01*
X166624000Y-97462000D01*
X166370000Y-97462000D01*
X166370000Y-97442000D01*
X165220750Y-97442000D01*
X165062000Y-97600750D01*
X165062000Y-99191309D01*
X165071565Y-99214400D01*
X161489209Y-99214400D01*
X161539038Y-99094399D01*
X161539362Y-98722433D01*
X161397317Y-98378657D01*
X161327000Y-98308217D01*
X161327000Y-97262950D01*
X173755500Y-97262950D01*
X173755500Y-97528510D01*
X173852173Y-97761899D01*
X174030802Y-97940527D01*
X174264191Y-98037200D01*
X174529750Y-98037200D01*
X174688500Y-97878450D01*
X174688500Y-97104200D01*
X174942500Y-97104200D01*
X174942500Y-97878450D01*
X175101250Y-98037200D01*
X175366809Y-98037200D01*
X175600198Y-97940527D01*
X175778827Y-97761899D01*
X175875500Y-97528510D01*
X175875500Y-97262950D01*
X175716750Y-97104200D01*
X174942500Y-97104200D01*
X174688500Y-97104200D01*
X173914250Y-97104200D01*
X173755500Y-97262950D01*
X161327000Y-97262950D01*
X161327000Y-96101563D01*
X161417633Y-95968917D01*
X161502910Y-96101441D01*
X161715110Y-96246431D01*
X161967000Y-96297440D01*
X162567000Y-96297440D01*
X162802317Y-96253162D01*
X163018441Y-96114090D01*
X163163431Y-95901890D01*
X163164804Y-95895109D01*
X163326001Y-95787401D01*
X163840002Y-95273400D01*
X165130466Y-95273400D01*
X165062000Y-95438691D01*
X165062000Y-97029250D01*
X165220750Y-97188000D01*
X166370000Y-97188000D01*
X166370000Y-97168000D01*
X166624000Y-97168000D01*
X166624000Y-97188000D01*
X167773250Y-97188000D01*
X167932000Y-97029250D01*
X167932000Y-95438691D01*
X167863534Y-95273400D01*
X172925898Y-95273400D01*
X173760814Y-96108316D01*
X173801766Y-96314195D01*
X173755500Y-96425890D01*
X173755500Y-96691450D01*
X173914250Y-96850200D01*
X174229982Y-96850200D01*
X174389089Y-96956512D01*
X174794733Y-97037200D01*
X174836267Y-97037200D01*
X175241911Y-96956512D01*
X175401018Y-96850200D01*
X175716750Y-96850200D01*
X175875500Y-96691450D01*
X175875500Y-96425890D01*
X175829234Y-96314195D01*
X175896267Y-95977200D01*
X175815579Y-95571556D01*
X175585800Y-95227667D01*
X175241911Y-94997888D01*
X174836267Y-94917200D01*
X174794733Y-94917200D01*
X174731817Y-94929715D01*
X173778101Y-93975999D01*
X173531539Y-93811252D01*
X173240700Y-93753400D01*
X167926539Y-93753400D01*
X167944440Y-93665000D01*
X167944440Y-90165000D01*
X167900162Y-89929683D01*
X167761090Y-89713559D01*
X167548890Y-89568569D01*
X167297000Y-89517560D01*
X165697000Y-89517560D01*
X165461683Y-89561838D01*
X165245559Y-89700910D01*
X165100569Y-89913110D01*
X165049560Y-90165000D01*
X165049560Y-91155000D01*
X164467402Y-91155000D01*
X163503801Y-90191399D01*
X163257239Y-90026652D01*
X162966400Y-89968800D01*
X159702500Y-89968800D01*
X159459914Y-90017054D01*
X159411660Y-90026652D01*
X159165099Y-90191399D01*
X157972000Y-91384498D01*
X157972000Y-90238690D01*
X157875327Y-90005301D01*
X157696698Y-89826673D01*
X157463309Y-89730000D01*
X156622750Y-89730000D01*
X156464000Y-89888750D01*
X156464000Y-91738000D01*
X156484000Y-91738000D01*
X156484000Y-91992000D01*
X156464000Y-91992000D01*
X156464000Y-94737440D01*
X156484000Y-94737440D01*
X156484000Y-94952000D01*
X156464000Y-94952000D01*
X156464000Y-96051250D01*
X156579000Y-96166250D01*
X156579000Y-96393000D01*
X156584560Y-96393000D01*
X156584560Y-96647000D01*
X156579000Y-96647000D01*
X156579000Y-97663000D01*
X156640750Y-97663000D01*
X156755750Y-97778000D01*
X157480000Y-97778000D01*
X157480000Y-97758000D01*
X157734000Y-97758000D01*
X157734000Y-97778000D01*
X158458250Y-97778000D01*
X158617000Y-97619250D01*
X158617000Y-97378691D01*
X158520327Y-97145302D01*
X158518957Y-97143932D01*
X158578431Y-97056890D01*
X158629440Y-96805000D01*
X158629440Y-96141404D01*
X158788441Y-96039090D01*
X158933431Y-95826890D01*
X158982415Y-95585000D01*
X159619560Y-95585000D01*
X159619560Y-95650000D01*
X159663838Y-95885317D01*
X159802910Y-96101441D01*
X159807000Y-96104236D01*
X159807000Y-98389334D01*
X159669362Y-98720801D01*
X159669038Y-99092767D01*
X159719296Y-99214400D01*
X156143802Y-99214400D01*
X155712000Y-98782598D01*
X155712000Y-98711486D01*
X155925691Y-98800000D01*
X156166250Y-98800000D01*
X156325000Y-98641250D01*
X156325000Y-97917000D01*
X156579000Y-97917000D01*
X156579000Y-98641250D01*
X156737750Y-98800000D01*
X156828974Y-98800000D01*
X156872301Y-98843327D01*
X157105690Y-98940000D01*
X157321250Y-98940000D01*
X157480000Y-98781250D01*
X157480000Y-98308209D01*
X157487000Y-98291310D01*
X157487000Y-98075750D01*
X157480000Y-98068750D01*
X157480000Y-98032000D01*
X157734000Y-98032000D01*
X157734000Y-98781250D01*
X157892750Y-98940000D01*
X158108310Y-98940000D01*
X158341699Y-98843327D01*
X158520327Y-98664698D01*
X158617000Y-98431309D01*
X158617000Y-98190750D01*
X158458250Y-98032000D01*
X157734000Y-98032000D01*
X157480000Y-98032000D01*
X157443250Y-98032000D01*
X157328250Y-97917000D01*
X156579000Y-97917000D01*
X156325000Y-97917000D01*
X156305000Y-97917000D01*
X156305000Y-97663000D01*
X156325000Y-97663000D01*
X156325000Y-96647000D01*
X156305000Y-96647000D01*
X156305000Y-96393000D01*
X156325000Y-96393000D01*
X156325000Y-95668750D01*
X156210000Y-95553750D01*
X156210000Y-94952000D01*
X156190000Y-94952000D01*
X156190000Y-94737440D01*
X156210000Y-94737440D01*
X156210000Y-91992000D01*
X154860750Y-91992000D01*
X154702000Y-92150750D01*
X154702000Y-93375008D01*
X154701400Y-93427560D01*
X154337000Y-93427560D01*
X154101683Y-93471838D01*
X153885559Y-93610910D01*
X153740569Y-93823110D01*
X153734111Y-93855000D01*
X153597463Y-93855000D01*
X153565327Y-93822808D01*
X153221799Y-93680162D01*
X152849833Y-93679838D01*
X152506057Y-93821883D01*
X152242808Y-94084673D01*
X152100162Y-94428201D01*
X152099838Y-94800167D01*
X152241883Y-95143943D01*
X152504673Y-95407192D01*
X152848201Y-95549838D01*
X153220167Y-95550162D01*
X153563943Y-95408117D01*
X153597118Y-95375000D01*
X153689560Y-95375000D01*
X153689560Y-95575000D01*
X153733838Y-95810317D01*
X153872910Y-96026441D01*
X153921804Y-96059849D01*
X153904560Y-96145000D01*
X153904560Y-96895000D01*
X153948838Y-97130317D01*
X153962970Y-97152279D01*
X153955569Y-97163110D01*
X153904560Y-97415000D01*
X153904560Y-98165000D01*
X153948838Y-98400317D01*
X154087910Y-98616441D01*
X154192000Y-98687563D01*
X154192000Y-99097400D01*
X154249852Y-99388239D01*
X154414599Y-99634801D01*
X154917358Y-100137560D01*
X154667000Y-100137560D01*
X154431683Y-100181838D01*
X154215559Y-100320910D01*
X154070569Y-100533110D01*
X154019560Y-100785000D01*
X154019560Y-101685000D01*
X154063838Y-101920317D01*
X154202910Y-102136441D01*
X154204548Y-102137560D01*
X153717000Y-102137560D01*
X153481683Y-102181838D01*
X153265559Y-102320910D01*
X153120569Y-102533110D01*
X153069560Y-102785000D01*
X153069560Y-103207638D01*
X152262198Y-104015000D01*
X151542105Y-104015000D01*
X151451090Y-103873559D01*
X151238890Y-103728569D01*
X150987000Y-103677560D01*
X150487000Y-103677560D01*
X150251683Y-103721838D01*
X150035559Y-103860910D01*
X149997000Y-103917343D01*
X149997000Y-102170800D01*
X149939148Y-101879961D01*
X149774401Y-101633399D01*
X145533601Y-97392599D01*
X145287039Y-97227852D01*
X144996200Y-97170000D01*
X141209440Y-97170000D01*
X141209440Y-96855000D01*
X141185056Y-96725411D01*
X141209440Y-96605000D01*
X141209440Y-96055000D01*
X141165162Y-95819683D01*
X141026090Y-95603559D01*
X140834597Y-95472718D01*
X140990943Y-95408117D01*
X141254192Y-95145327D01*
X141396838Y-94801799D01*
X141397162Y-94429833D01*
X141255117Y-94086057D01*
X140992327Y-93822808D01*
X140648799Y-93680162D01*
X140276833Y-93679838D01*
X139933057Y-93821883D01*
X139884856Y-93870000D01*
X139380481Y-93870000D01*
X139432000Y-93611000D01*
X139432000Y-93607931D01*
X139523441Y-93549090D01*
X139668431Y-93336890D01*
X139719440Y-93085000D01*
X139719440Y-92335000D01*
X139675162Y-92099683D01*
X139536090Y-91883559D01*
X139328224Y-91741530D01*
X139209401Y-91563699D01*
X138789601Y-91143899D01*
X138543039Y-90979152D01*
X138252200Y-90921300D01*
X129870200Y-90921300D01*
X129579361Y-90979152D01*
X129332799Y-91143899D01*
X129014599Y-91462099D01*
X128849852Y-91708661D01*
X128834755Y-91784557D01*
X128700559Y-91870910D01*
X128555569Y-92083110D01*
X128504560Y-92335000D01*
X128504560Y-93085000D01*
X128548838Y-93320317D01*
X128687910Y-93536441D01*
X128797056Y-93611017D01*
X128849852Y-93876439D01*
X129014599Y-94123001D01*
X129189560Y-94297962D01*
X129189560Y-95380000D01*
X129196043Y-95414454D01*
X129162000Y-95407560D01*
X127662000Y-95407560D01*
X127426683Y-95451838D01*
X127210559Y-95590910D01*
X127065569Y-95803110D01*
X127014560Y-96055000D01*
X127014560Y-96134091D01*
X127007000Y-96132560D01*
X126207000Y-96132560D01*
X125971683Y-96176838D01*
X125868354Y-96243329D01*
X125866698Y-96241673D01*
X125633309Y-96145000D01*
X125392750Y-96145000D01*
X125234000Y-96303750D01*
X125234000Y-97028000D01*
X125254000Y-97028000D01*
X125254000Y-97282000D01*
X125234000Y-97282000D01*
X125234000Y-98006250D01*
X125392750Y-98165000D01*
X125626398Y-98165000D01*
X125221398Y-98570000D01*
X124422757Y-98570000D01*
X124396090Y-98528559D01*
X124183890Y-98383569D01*
X123932000Y-98332560D01*
X123332000Y-98332560D01*
X123096683Y-98376838D01*
X122880559Y-98515910D01*
X122735569Y-98728110D01*
X122684560Y-98980000D01*
X122684560Y-99202638D01*
X122679440Y-99207758D01*
X122679440Y-98980000D01*
X122635162Y-98744683D01*
X122509099Y-98548776D01*
X122534392Y-98523527D01*
X122677038Y-98179999D01*
X122677362Y-97808033D01*
X122535317Y-97464257D01*
X122511851Y-97440750D01*
X124072000Y-97440750D01*
X124072000Y-97656310D01*
X124168673Y-97889699D01*
X124347302Y-98068327D01*
X124580691Y-98165000D01*
X124821250Y-98165000D01*
X124980000Y-98006250D01*
X124980000Y-97282000D01*
X124230750Y-97282000D01*
X124072000Y-97440750D01*
X122511851Y-97440750D01*
X122272527Y-97201008D01*
X121928999Y-97058362D01*
X121557033Y-97058038D01*
X121213257Y-97200083D01*
X120950008Y-97462873D01*
X120807362Y-97806401D01*
X120807038Y-98178367D01*
X120949083Y-98522143D01*
X120965241Y-98538329D01*
X120943601Y-98570000D01*
X120193402Y-98570000D01*
X120116001Y-98492599D01*
X119869439Y-98327852D01*
X119578600Y-98270000D01*
X118735238Y-98270000D01*
X118783229Y-98131131D01*
X118634563Y-97957000D01*
X117809000Y-97957000D01*
X117809000Y-97977000D01*
X117555000Y-97977000D01*
X117555000Y-97957000D01*
X116729437Y-97957000D01*
X116580771Y-98131131D01*
X116642560Y-98309926D01*
X116555559Y-98365910D01*
X116410569Y-98578110D01*
X116359560Y-98830000D01*
X113232000Y-98830000D01*
X113232000Y-97131874D01*
X113612881Y-97131874D01*
X113814632Y-97542763D01*
X114155322Y-97830002D01*
X114580000Y-97965000D01*
X114855000Y-97965000D01*
X114855000Y-96957000D01*
X115109000Y-96957000D01*
X115109000Y-97965000D01*
X115384000Y-97965000D01*
X115808678Y-97830002D01*
X116149368Y-97542763D01*
X116156190Y-97528869D01*
X116580771Y-97528869D01*
X116729437Y-97703000D01*
X117555000Y-97703000D01*
X117555000Y-96737266D01*
X117809000Y-96737266D01*
X117809000Y-97703000D01*
X118634563Y-97703000D01*
X118783229Y-97528869D01*
X118641568Y-97118951D01*
X118353821Y-96794448D01*
X118067363Y-96653690D01*
X124072000Y-96653690D01*
X124072000Y-96869250D01*
X124230750Y-97028000D01*
X124980000Y-97028000D01*
X124980000Y-96303750D01*
X124821250Y-96145000D01*
X124580691Y-96145000D01*
X124347302Y-96241673D01*
X124168673Y-96420301D01*
X124072000Y-96653690D01*
X118067363Y-96653690D01*
X117979938Y-96610732D01*
X117809000Y-96737266D01*
X117555000Y-96737266D01*
X117384062Y-96610732D01*
X117010179Y-96794448D01*
X116722432Y-97118951D01*
X116580771Y-97528869D01*
X116156190Y-97528869D01*
X116351119Y-97131874D01*
X116224954Y-96957000D01*
X115109000Y-96957000D01*
X114855000Y-96957000D01*
X113739046Y-96957000D01*
X113612881Y-97131874D01*
X113232000Y-97131874D01*
X113232000Y-96528126D01*
X113612881Y-96528126D01*
X113739046Y-96703000D01*
X114855000Y-96703000D01*
X114855000Y-95695000D01*
X115109000Y-95695000D01*
X115109000Y-96703000D01*
X116224954Y-96703000D01*
X116351119Y-96528126D01*
X116149368Y-96117237D01*
X115808678Y-95829998D01*
X115384000Y-95695000D01*
X115109000Y-95695000D01*
X114855000Y-95695000D01*
X114580000Y-95695000D01*
X114155322Y-95829998D01*
X113814632Y-96117237D01*
X113612881Y-96528126D01*
X113232000Y-96528126D01*
X113232000Y-90238690D01*
X154702000Y-90238690D01*
X154702000Y-91579250D01*
X154860750Y-91738000D01*
X156210000Y-91738000D01*
X156210000Y-89888750D01*
X156051250Y-89730000D01*
X155210691Y-89730000D01*
X154977302Y-89826673D01*
X154798673Y-90005301D01*
X154702000Y-90238690D01*
X113232000Y-90238690D01*
X113232000Y-88340000D01*
X175947000Y-88340000D01*
X175947000Y-114225000D01*
G36*
X161222910Y-106946441D02*
X161435110Y-107091431D01*
X161687000Y-107142440D01*
X162187000Y-107142440D01*
X162422317Y-107098162D01*
X162638441Y-106959090D01*
X162677000Y-106902657D01*
X162677000Y-107685298D01*
X162604738Y-107757560D01*
X162287000Y-107757560D01*
X162051683Y-107801838D01*
X161835559Y-107940910D01*
X161690569Y-108153110D01*
X161639560Y-108405000D01*
X161639560Y-109305000D01*
X161683838Y-109540317D01*
X161822910Y-109756441D01*
X161824548Y-109757560D01*
X161337000Y-109757560D01*
X161101683Y-109801838D01*
X160885559Y-109940910D01*
X160740569Y-110153110D01*
X160689560Y-110405000D01*
X160689560Y-110942738D01*
X160365598Y-111266700D01*
X157052000Y-111266700D01*
X157052000Y-111140750D01*
X156893250Y-110982000D01*
X156144000Y-110982000D01*
X156144000Y-111002000D01*
X155890000Y-111002000D01*
X155890000Y-110982000D01*
X155870000Y-110982000D01*
X155870000Y-110728000D01*
X155890000Y-110728000D01*
X155890000Y-109928750D01*
X156144000Y-109928750D01*
X156144000Y-110728000D01*
X156893250Y-110728000D01*
X157052000Y-110569250D01*
X157052000Y-110278691D01*
X156955327Y-110045302D01*
X156776699Y-109866673D01*
X156543310Y-109770000D01*
X156302750Y-109770000D01*
X156144000Y-109928750D01*
X155890000Y-109928750D01*
X155803988Y-109842738D01*
X155918441Y-109769090D01*
X156023726Y-109615000D01*
X156067000Y-109615000D01*
X156357839Y-109557148D01*
X156604401Y-109392401D01*
X158879362Y-107117440D01*
X159302000Y-107117440D01*
X159537317Y-107073162D01*
X159555079Y-107061733D01*
X159877000Y-107125767D01*
X160282644Y-107045079D01*
X160626533Y-106815300D01*
X160633415Y-106805000D01*
X161131895Y-106805000D01*
X161222910Y-106946441D01*
X161222910Y-106946441D01*
G37*
X161222910Y-106946441D02*
X161435110Y-107091431D01*
X161687000Y-107142440D01*
X162187000Y-107142440D01*
X162422317Y-107098162D01*
X162638441Y-106959090D01*
X162677000Y-106902657D01*
X162677000Y-107685298D01*
X162604738Y-107757560D01*
X162287000Y-107757560D01*
X162051683Y-107801838D01*
X161835559Y-107940910D01*
X161690569Y-108153110D01*
X161639560Y-108405000D01*
X161639560Y-109305000D01*
X161683838Y-109540317D01*
X161822910Y-109756441D01*
X161824548Y-109757560D01*
X161337000Y-109757560D01*
X161101683Y-109801838D01*
X160885559Y-109940910D01*
X160740569Y-110153110D01*
X160689560Y-110405000D01*
X160689560Y-110942738D01*
X160365598Y-111266700D01*
X157052000Y-111266700D01*
X157052000Y-111140750D01*
X156893250Y-110982000D01*
X156144000Y-110982000D01*
X156144000Y-111002000D01*
X155890000Y-111002000D01*
X155890000Y-110982000D01*
X155870000Y-110982000D01*
X155870000Y-110728000D01*
X155890000Y-110728000D01*
X155890000Y-109928750D01*
X156144000Y-109928750D01*
X156144000Y-110728000D01*
X156893250Y-110728000D01*
X157052000Y-110569250D01*
X157052000Y-110278691D01*
X156955327Y-110045302D01*
X156776699Y-109866673D01*
X156543310Y-109770000D01*
X156302750Y-109770000D01*
X156144000Y-109928750D01*
X155890000Y-109928750D01*
X155803988Y-109842738D01*
X155918441Y-109769090D01*
X156023726Y-109615000D01*
X156067000Y-109615000D01*
X156357839Y-109557148D01*
X156604401Y-109392401D01*
X158879362Y-107117440D01*
X159302000Y-107117440D01*
X159537317Y-107073162D01*
X159555079Y-107061733D01*
X159877000Y-107125767D01*
X160282644Y-107045079D01*
X160626533Y-106815300D01*
X160633415Y-106805000D01*
X161131895Y-106805000D01*
X161222910Y-106946441D01*
G36*
X143370559Y-103540910D02*
X143225569Y-103753110D01*
X143174560Y-104005000D01*
X143174560Y-104505000D01*
X143218838Y-104740317D01*
X143357910Y-104956441D01*
X143433118Y-105007828D01*
X143420559Y-105015910D01*
X143275569Y-105228110D01*
X143224560Y-105480000D01*
X143224560Y-106280000D01*
X143268838Y-106515317D01*
X143374482Y-106679493D01*
X143333673Y-106720302D01*
X143237000Y-106953691D01*
X143237000Y-107194250D01*
X143395750Y-107353000D01*
X144145000Y-107353000D01*
X144145000Y-107333000D01*
X144399000Y-107333000D01*
X144399000Y-107353000D01*
X145148250Y-107353000D01*
X145224500Y-107276750D01*
X145300750Y-107353000D01*
X146050000Y-107353000D01*
X146050000Y-107333000D01*
X146304000Y-107333000D01*
X146304000Y-107353000D01*
X146324000Y-107353000D01*
X146324000Y-107607000D01*
X146304000Y-107607000D01*
X146304000Y-108356250D01*
X146462750Y-108515000D01*
X146547300Y-108515000D01*
X146547300Y-110366560D01*
X145649800Y-110366560D01*
X145649800Y-109875900D01*
X145591948Y-109585061D01*
X145427201Y-109338499D01*
X144603702Y-108515000D01*
X144798310Y-108515000D01*
X145031699Y-108418327D01*
X145210327Y-108239698D01*
X145224500Y-108205481D01*
X145238673Y-108239698D01*
X145417301Y-108418327D01*
X145650690Y-108515000D01*
X145891250Y-108515000D01*
X146050000Y-108356250D01*
X146050000Y-107607000D01*
X145300750Y-107607000D01*
X145224500Y-107683250D01*
X145148250Y-107607000D01*
X144399000Y-107607000D01*
X144399000Y-107627000D01*
X144145000Y-107627000D01*
X144145000Y-107607000D01*
X143395750Y-107607000D01*
X143249396Y-107753354D01*
X143059800Y-107714960D01*
X142712162Y-107714960D01*
X142079601Y-107082399D01*
X141833039Y-106917652D01*
X141542200Y-106859800D01*
X139018280Y-106859800D01*
X139034440Y-106780000D01*
X139034440Y-105280000D01*
X139026913Y-105240000D01*
X139526250Y-105240000D01*
X139685000Y-105081250D01*
X139685000Y-104457000D01*
X138585750Y-104457000D01*
X138427000Y-104615750D01*
X138427000Y-104640660D01*
X138387000Y-104632560D01*
X137837000Y-104632560D01*
X137707411Y-104656944D01*
X137587000Y-104632560D01*
X137037000Y-104632560D01*
X136907411Y-104656944D01*
X136787000Y-104632560D01*
X136237000Y-104632560D01*
X136107411Y-104656944D01*
X135987000Y-104632560D01*
X135437000Y-104632560D01*
X135307411Y-104656944D01*
X135187000Y-104632560D01*
X134637000Y-104632560D01*
X134507411Y-104656944D01*
X134387000Y-104632560D01*
X133837000Y-104632560D01*
X133707411Y-104656944D01*
X133587000Y-104632560D01*
X133037000Y-104632560D01*
X132931295Y-104652450D01*
X132913310Y-104645000D01*
X132797750Y-104645000D01*
X132701349Y-104741401D01*
X132639002Y-104781520D01*
X132639002Y-104732000D01*
X133081002Y-104290000D01*
X138647025Y-104290000D01*
X138810110Y-104401431D01*
X139062000Y-104452440D01*
X139959000Y-104452440D01*
X139959000Y-104457000D01*
X139939000Y-104457000D01*
X139939000Y-105081250D01*
X140097750Y-105240000D01*
X140688309Y-105240000D01*
X140736106Y-105220202D01*
X140855348Y-105220202D01*
X140696600Y-105378950D01*
X140696600Y-105619509D01*
X140793273Y-105852898D01*
X140971901Y-106031527D01*
X141205290Y-106128200D01*
X141420850Y-106128200D01*
X141579600Y-105969450D01*
X141579600Y-105220200D01*
X141833600Y-105220200D01*
X141833600Y-105969450D01*
X141992350Y-106128200D01*
X142207910Y-106128200D01*
X142441299Y-106031527D01*
X142619927Y-105852898D01*
X142716600Y-105619509D01*
X142716600Y-105378950D01*
X142557850Y-105220200D01*
X141833600Y-105220200D01*
X141579600Y-105220200D01*
X141559600Y-105220200D01*
X141559600Y-104966200D01*
X141579600Y-104966200D01*
X141579600Y-104946200D01*
X141833600Y-104946200D01*
X141833600Y-104966200D01*
X142557850Y-104966200D01*
X142716600Y-104807450D01*
X142716600Y-104566891D01*
X142619927Y-104333502D01*
X142618557Y-104332132D01*
X142678031Y-104245090D01*
X142729040Y-103993200D01*
X142729040Y-103515000D01*
X143410824Y-103515000D01*
X143370559Y-103540910D01*
X143370559Y-103540910D01*
G37*
X143370559Y-103540910D02*
X143225569Y-103753110D01*
X143174560Y-104005000D01*
X143174560Y-104505000D01*
X143218838Y-104740317D01*
X143357910Y-104956441D01*
X143433118Y-105007828D01*
X143420559Y-105015910D01*
X143275569Y-105228110D01*
X143224560Y-105480000D01*
X143224560Y-106280000D01*
X143268838Y-106515317D01*
X143374482Y-106679493D01*
X143333673Y-106720302D01*
X143237000Y-106953691D01*
X143237000Y-107194250D01*
X143395750Y-107353000D01*
X144145000Y-107353000D01*
X144145000Y-107333000D01*
X144399000Y-107333000D01*
X144399000Y-107353000D01*
X145148250Y-107353000D01*
X145224500Y-107276750D01*
X145300750Y-107353000D01*
X146050000Y-107353000D01*
X146050000Y-107333000D01*
X146304000Y-107333000D01*
X146304000Y-107353000D01*
X146324000Y-107353000D01*
X146324000Y-107607000D01*
X146304000Y-107607000D01*
X146304000Y-108356250D01*
X146462750Y-108515000D01*
X146547300Y-108515000D01*
X146547300Y-110366560D01*
X145649800Y-110366560D01*
X145649800Y-109875900D01*
X145591948Y-109585061D01*
X145427201Y-109338499D01*
X144603702Y-108515000D01*
X144798310Y-108515000D01*
X145031699Y-108418327D01*
X145210327Y-108239698D01*
X145224500Y-108205481D01*
X145238673Y-108239698D01*
X145417301Y-108418327D01*
X145650690Y-108515000D01*
X145891250Y-108515000D01*
X146050000Y-108356250D01*
X146050000Y-107607000D01*
X145300750Y-107607000D01*
X145224500Y-107683250D01*
X145148250Y-107607000D01*
X144399000Y-107607000D01*
X144399000Y-107627000D01*
X144145000Y-107627000D01*
X144145000Y-107607000D01*
X143395750Y-107607000D01*
X143249396Y-107753354D01*
X143059800Y-107714960D01*
X142712162Y-107714960D01*
X142079601Y-107082399D01*
X141833039Y-106917652D01*
X141542200Y-106859800D01*
X139018280Y-106859800D01*
X139034440Y-106780000D01*
X139034440Y-105280000D01*
X139026913Y-105240000D01*
X139526250Y-105240000D01*
X139685000Y-105081250D01*
X139685000Y-104457000D01*
X138585750Y-104457000D01*
X138427000Y-104615750D01*
X138427000Y-104640660D01*
X138387000Y-104632560D01*
X137837000Y-104632560D01*
X137707411Y-104656944D01*
X137587000Y-104632560D01*
X137037000Y-104632560D01*
X136907411Y-104656944D01*
X136787000Y-104632560D01*
X136237000Y-104632560D01*
X136107411Y-104656944D01*
X135987000Y-104632560D01*
X135437000Y-104632560D01*
X135307411Y-104656944D01*
X135187000Y-104632560D01*
X134637000Y-104632560D01*
X134507411Y-104656944D01*
X134387000Y-104632560D01*
X133837000Y-104632560D01*
X133707411Y-104656944D01*
X133587000Y-104632560D01*
X133037000Y-104632560D01*
X132931295Y-104652450D01*
X132913310Y-104645000D01*
X132797750Y-104645000D01*
X132701349Y-104741401D01*
X132639002Y-104781520D01*
X132639002Y-104732000D01*
X133081002Y-104290000D01*
X138647025Y-104290000D01*
X138810110Y-104401431D01*
X139062000Y-104452440D01*
X139959000Y-104452440D01*
X139959000Y-104457000D01*
X139939000Y-104457000D01*
X139939000Y-105081250D01*
X140097750Y-105240000D01*
X140688309Y-105240000D01*
X140736106Y-105220202D01*
X140855348Y-105220202D01*
X140696600Y-105378950D01*
X140696600Y-105619509D01*
X140793273Y-105852898D01*
X140971901Y-106031527D01*
X141205290Y-106128200D01*
X141420850Y-106128200D01*
X141579600Y-105969450D01*
X141579600Y-105220200D01*
X141833600Y-105220200D01*
X141833600Y-105969450D01*
X141992350Y-106128200D01*
X142207910Y-106128200D01*
X142441299Y-106031527D01*
X142619927Y-105852898D01*
X142716600Y-105619509D01*
X142716600Y-105378950D01*
X142557850Y-105220200D01*
X141833600Y-105220200D01*
X141579600Y-105220200D01*
X141559600Y-105220200D01*
X141559600Y-104966200D01*
X141579600Y-104966200D01*
X141579600Y-104946200D01*
X141833600Y-104946200D01*
X141833600Y-104966200D01*
X142557850Y-104966200D01*
X142716600Y-104807450D01*
X142716600Y-104566891D01*
X142619927Y-104333502D01*
X142618557Y-104332132D01*
X142678031Y-104245090D01*
X142729040Y-103993200D01*
X142729040Y-103515000D01*
X143410824Y-103515000D01*
X143370559Y-103540910D01*
G36*
X163615199Y-92452401D02*
X163861761Y-92617148D01*
X164152600Y-92675000D01*
X165049560Y-92675000D01*
X165049560Y-93665000D01*
X165066194Y-93753400D01*
X163700202Y-93753400D01*
X163264440Y-93317638D01*
X163264440Y-92945000D01*
X163220162Y-92709683D01*
X163081090Y-92493559D01*
X163052000Y-92473683D01*
X163052000Y-92360750D01*
X162893250Y-92202000D01*
X162292000Y-92202000D01*
X162292000Y-92222000D01*
X162042000Y-92222000D01*
X162042000Y-92202000D01*
X162020000Y-92202000D01*
X162020000Y-91948000D01*
X162042000Y-91948000D01*
X162042000Y-91928000D01*
X162292000Y-91928000D01*
X162292000Y-91948000D01*
X162893250Y-91948000D01*
X163002024Y-91839226D01*
X163615199Y-92452401D01*
X163615199Y-92452401D01*
G37*
X163615199Y-92452401D02*
X163861761Y-92617148D01*
X164152600Y-92675000D01*
X165049560Y-92675000D01*
X165049560Y-93665000D01*
X165066194Y-93753400D01*
X163700202Y-93753400D01*
X163264440Y-93317638D01*
X163264440Y-92945000D01*
X163220162Y-92709683D01*
X163081090Y-92493559D01*
X163052000Y-92473683D01*
X163052000Y-92360750D01*
X162893250Y-92202000D01*
X162292000Y-92202000D01*
X162292000Y-92222000D01*
X162042000Y-92222000D01*
X162042000Y-92202000D01*
X162020000Y-92202000D01*
X162020000Y-91948000D01*
X162042000Y-91948000D01*
X162042000Y-91928000D01*
X162292000Y-91928000D01*
X162292000Y-91948000D01*
X162893250Y-91948000D01*
X163002024Y-91839226D01*
X163615199Y-92452401D01*
G36*
X136295750Y-92583000D02*
X137045000Y-92583000D01*
X137045000Y-92563000D01*
X137299000Y-92563000D01*
X137299000Y-92583000D01*
X137319000Y-92583000D01*
X137319000Y-92837000D01*
X137299000Y-92837000D01*
X137299000Y-92857000D01*
X137045000Y-92857000D01*
X137045000Y-92837000D01*
X136295750Y-92837000D01*
X136137000Y-92995750D01*
X136137000Y-93211310D01*
X136152396Y-93248479D01*
X136107411Y-93256944D01*
X135987000Y-93232560D01*
X135437000Y-93232560D01*
X135307411Y-93256944D01*
X135187000Y-93232560D01*
X134637000Y-93232560D01*
X134507411Y-93256944D01*
X134387000Y-93232560D01*
X133837000Y-93232560D01*
X133707411Y-93256944D01*
X133587000Y-93232560D01*
X133037000Y-93232560D01*
X132907411Y-93256944D01*
X132787000Y-93232560D01*
X132237000Y-93232560D01*
X132107411Y-93256944D01*
X132071140Y-93249599D01*
X132087000Y-93211310D01*
X132087000Y-92995750D01*
X131928250Y-92837000D01*
X131179000Y-92837000D01*
X131179000Y-92857000D01*
X130925000Y-92857000D01*
X130925000Y-92837000D01*
X130905000Y-92837000D01*
X130905000Y-92583000D01*
X130925000Y-92583000D01*
X130925000Y-92563000D01*
X131179000Y-92563000D01*
X131179000Y-92583000D01*
X131928250Y-92583000D01*
X132069950Y-92441300D01*
X136154050Y-92441300D01*
X136295750Y-92583000D01*
X136295750Y-92583000D01*
G37*
X136295750Y-92583000D02*
X137045000Y-92583000D01*
X137045000Y-92563000D01*
X137299000Y-92563000D01*
X137299000Y-92583000D01*
X137319000Y-92583000D01*
X137319000Y-92837000D01*
X137299000Y-92837000D01*
X137299000Y-92857000D01*
X137045000Y-92857000D01*
X137045000Y-92837000D01*
X136295750Y-92837000D01*
X136137000Y-92995750D01*
X136137000Y-93211310D01*
X136152396Y-93248479D01*
X136107411Y-93256944D01*
X135987000Y-93232560D01*
X135437000Y-93232560D01*
X135307411Y-93256944D01*
X135187000Y-93232560D01*
X134637000Y-93232560D01*
X134507411Y-93256944D01*
X134387000Y-93232560D01*
X133837000Y-93232560D01*
X133707411Y-93256944D01*
X133587000Y-93232560D01*
X133037000Y-93232560D01*
X132907411Y-93256944D01*
X132787000Y-93232560D01*
X132237000Y-93232560D01*
X132107411Y-93256944D01*
X132071140Y-93249599D01*
X132087000Y-93211310D01*
X132087000Y-92995750D01*
X131928250Y-92837000D01*
X131179000Y-92837000D01*
X131179000Y-92857000D01*
X130925000Y-92857000D01*
X130925000Y-92837000D01*
X130905000Y-92837000D01*
X130905000Y-92583000D01*
X130925000Y-92583000D01*
X130925000Y-92563000D01*
X131179000Y-92563000D01*
X131179000Y-92583000D01*
X131928250Y-92583000D01*
X132069950Y-92441300D01*
X136154050Y-92441300D01*
X136295750Y-92583000D01*
M02*
